<svg id="Layer_1" data-name="Layer 1" xmlns="http://www.w3.org/2000/svg" viewBox="0 0 500 41.5"><path d="M1.27,4.71a.92.92,0,0,1,.92-.92H12.8c5.91,0,9.93,3.83,9.93,8.92A9.16,9.16,0,0,1,18,20.46c2.56,1.07,5.81,3.44,5.81,7.9,0,5.43-4.31,9.35-10.57,9.35h-11a.92.92,0,0,1-.92-.92ZM13.62,34.47a6,6,0,0,0,6.11-6.16c0-3.44-3.15-6-6.93-6h-8V34.47ZM12.8,19c3.73,0,5.82-2.67,5.82-6.06S16.53,7.13,12.8,7.13H4.9V19Z" fill="#231f20"/><path d="M36.88,4.71a.92.92,0,0,1,.92-.92h1.89a1,1,0,0,1,.92.92V34.47h14a.92.92,0,0,1,.92.92v1.4a.92.92,0,0,1-.92.92H37.8a.92.92,0,0,1-.92-.92Z" fill="#231f20"/><path d="M79.3,3.31A17.44,17.44,0,1,1,61.9,20.8,17.41,17.41,0,0,1,79.3,3.31Zm0,31.49a14.05,14.05,0,1,0-14-14A14.08,14.08,0,0,0,79.3,34.8Z" fill="#231f20"/><path d="M105.51,5a.85.85,0,0,1,.87-1.16h2a1,1,0,0,1,.87.68L116,29.57h.19l8.09-25.73a.83.83,0,0,1,.83-.53H126a.85.85,0,0,1,.82.53l8.24,25.73h.19l6.59-25.1a1,1,0,0,1,.88-.68h2A.84.84,0,0,1,145.63,5l-9.15,32.57a.93.93,0,0,1-.88.67h-.77a1,1,0,0,1-.82-.53l-8.39-26.21h-.24l-8.24,26.21a1,1,0,0,1-.82.53h-.78a.93.93,0,0,1-.87-.67Z" fill="#231f20"/><path d="M187.83,3.31a17,17,0,0,1,11.72,4.5.94.94,0,0,1,0,1.36l-1.31,1.31c-.38.48-.77.43-1.25-.05a14.7,14.7,0,0,0-9.26-3.63,13.74,13.74,0,0,0-13.52,14,13.74,13.74,0,0,0,13.52,13.91c4.22,0,6.69-1.7,9.26-3.64a.92.92,0,0,1,1.16-.14l1.45,1.31a.92.92,0,0,1-.05,1.31,16.64,16.64,0,0,1-11.77,4.69,17.44,17.44,0,1,1,0-34.88Z" fill="#231f20"/><path d="M208.5,36.45,223.23,3.84a.88.88,0,0,1,.83-.53h.48a.85.85,0,0,1,.82.53L240,36.45a.86.86,0,0,1-.82,1.26h-1.94a.9.9,0,0,1-.83-.53l-3.58-8H215.62l-3.53,8a.9.9,0,0,1-.82.53h-1.94A.86.86,0,0,1,208.5,36.45Zm23-10.27c-2.38-5.28-4.7-10.61-7.08-15.9h-.38L217,26.18Z" fill="#231f20"/><path d="M250.63,4.18a.91.91,0,0,1,.92-.87h1.21l21.86,27.23h.1V4.71a.92.92,0,0,1,.92-.92h1.69a1,1,0,0,1,.92.92V37.32a.9.9,0,0,1-.92.87h-.87L254.22,10.43h-.05V36.79a.92.92,0,0,1-.92.92h-1.7a1,1,0,0,1-.92-.92Z" fill="#231f20"/><path d="M293.19,4.71a.91.91,0,0,1,.87-.92h10.85a17,17,0,1,1,0,33.92H294.06a.91.91,0,0,1-.87-.92Zm10.95,29.66c7.95,0,13.72-5.67,13.72-13.67S312.09,7.09,304.14,7.09h-7.27V34.37Z" fill="#231f20"/><path d="M334.57,4.71a.92.92,0,0,1,.92-.92h1.89a1,1,0,0,1,.92.92V34.47h14a.92.92,0,0,1,.92.92v1.4a.92.92,0,0,1-.92.92H335.49a.92.92,0,0,1-.92-.92Z" fill="#231f20"/><path d="M363.7,4.71a.92.92,0,0,1,.92-.92h19.09a.92.92,0,0,1,.92.92V6.12a.92.92,0,0,1-.92.92H367.43V18.86h13.91a1,1,0,0,1,.92.92v1.41a.92.92,0,0,1-.92.92H367.43V34.47h16.28a.92.92,0,0,1,.92.92v1.4a.92.92,0,0,1-.92.92H364.62a.92.92,0,0,1-.92-.92Z" fill="#231f20"/><path d="M427.84,3.31a17.06,17.06,0,0,1,11.73,4.5.94.94,0,0,1,0,1.36l-1.3,1.31c-.39.48-.78.43-1.26-.05a14.68,14.68,0,0,0-9.26-3.63,13.74,13.74,0,0,0-13.52,14,13.74,13.74,0,0,0,13.52,13.91c4.22,0,6.69-1.7,9.26-3.64a.92.92,0,0,1,1.16-.14l1.45,1.31a.91.91,0,0,1-.05,1.31,16.62,16.62,0,0,1-11.77,4.69,17.44,17.44,0,1,1,0-34.88Z" fill="#231f20"/><path d="M466.27,3.31a17.44,17.44,0,1,1-17.4,17.49A17.41,17.41,0,0,1,466.27,3.31Zm0,31.49a14.05,14.05,0,1,0-14-14A14.08,14.08,0,0,0,466.27,34.8Z" fill="#231f20"/><path d="M496,32.67a2.76,2.76,0,0,1,0,5.52,2.76,2.76,0,0,1,0-5.52Z" fill="#231f20"/></svg>