<svg version="1.1" id="Layer_1" xmlns="http://www.w3.org/2000/svg" xmlns:xlink="http://www.w3.org/1999/xlink" x="0px" y="0px"
	 width="100%" viewBox="0 0 988 988" enable-background="new 0 0 988 988" xml:space="preserve">
<path fill="#FEFEFE" opacity="1.000000" stroke="none" 
	d="
M989.000000,353.000000 
	C989.000000,565.333313 989.000000,777.166687 989.000000,989.000000 
	C659.666687,989.000000 330.333344,989.000000 1.000000,989.000000 
	C1.000000,659.666687 1.000000,330.333344 1.000000,1.000000 
	C330.333344,1.000000 659.666687,1.000000 989.000000,1.000000 
	C989.000000,118.166664 989.000000,235.333328 989.000000,353.000000 
M289.537048,330.499695 
	C289.630402,386.820282 287.814514,443.224121 290.265015,499.441956 
	C293.931854,583.563782 335.656342,644.892395 411.968719,679.810913 
	C493.042633,716.907959 584.727844,697.109131 645.581360,631.937073 
	C681.645081,593.314026 700.097107,546.999695 700.291931,494.048096 
	C700.620544,404.728729 700.391174,315.407288 700.355103,226.086731 
	C700.353088,221.094269 700.268372,216.070129 699.729065,211.114380 
	C691.333496,133.961975 652.538208,77.439163 583.231628,42.799767 
	C504.981415,3.690311 405.017853,22.868065 345.792267,87.082268 
	C308.138824,127.907265 289.461395,176.029144 289.529694,231.513672 
	C289.569885,264.175629 289.537109,296.837646 289.537048,330.499695 
M306.380157,906.566345 
	C302.639618,907.068359 301.476440,909.544006 301.486328,912.934631 
	C301.496521,916.434082 301.482513,919.933533 301.490631,923.432983 
	C301.507660,930.770996 302.365753,931.593018 309.911743,931.717102 
	C311.187531,931.738159 312.459747,931.976807 313.733612,932.114990 
	C314.085358,932.562378 314.437073,933.009766 314.788818,933.457153 
	C313.529388,934.813232 312.476990,937.025208 310.977264,937.388000 
	C300.375366,939.952515 290.774902,937.915100 282.941681,929.935547 
	C272.686737,919.489136 272.286041,902.784912 281.898163,891.732666 
	C291.664795,880.502625 307.745148,878.654236 319.669281,887.690552 
	C323.705139,890.748962 326.768829,890.451477 330.020599,886.796204 
	C333.118439,883.313965 336.488892,880.075439 339.628082,876.628357 
	C342.906555,873.028381 342.754150,870.544312 338.917419,867.361755 
	C336.491241,865.349304 333.884186,863.507446 331.181671,861.882874 
	C305.961945,846.722229 273.865234,852.401428 256.544464,875.026917 
	C238.290756,898.871033 240.506104,931.229736 261.804108,951.852905 
	C280.577515,970.031555 318.057373,972.774536 339.518951,957.329773 
	C341.069183,956.214233 342.247375,953.522461 342.286041,951.537903 
	C342.532837,938.877991 342.451477,926.210693 342.393341,913.546204 
	C342.367218,907.853943 340.985413,906.534607 335.225769,906.510986 
	C325.894135,906.472717 316.562164,906.509705 306.380157,906.566345 
M526.001953,863.565613 
	C502.254120,881.086426 494.750580,912.270447 508.224945,937.444763 
	C521.560852,962.360352 551.260620,973.977539 578.017639,964.204529 
	C600.060669,956.153320 612.970703,940.071777 615.364197,916.742126 
	C617.811707,892.886902 608.545837,873.731384 587.916077,861.401855 
	C567.488647,849.193176 546.681396,850.278564 526.001953,863.565613 
M645.219238,858.334351 
	C645.157593,887.153442 645.094177,915.972473 645.036072,944.791565 
	C645.025635,949.956299 645.050720,955.121155 645.034424,960.285828 
	C645.023682,963.680359 646.727539,965.951904 650.039795,965.921570 
	C665.684143,965.778259 681.491455,966.715515 696.932556,964.792664 
	C724.029724,961.418335 744.605103,934.949036 742.867737,907.987854 
	C740.969177,878.524902 718.151245,855.484436 689.925598,854.840576 
	C677.103638,854.548035 664.267334,854.669983 651.443237,854.909058 
	C649.424133,854.946655 647.435181,856.607727 645.219238,858.334351 
M430.959015,853.686035 
	C407.214172,851.208557 388.180939,859.717407 375.391174,879.702759 
	C362.712311,899.514832 362.716553,920.524841 374.811676,940.678345 
	C388.510620,963.504211 416.262848,972.941467 441.922394,964.499329 
	C466.837158,956.302185 482.189911,932.665527 480.219360,905.538818 
	C478.331573,879.551453 458.432526,858.275085 430.959015,853.686035 
M540.033508,798.767456 
	C541.166504,792.516357 537.721619,788.448669 532.913635,784.953125 
	C538.201904,780.303345 540.294495,774.953003 537.455139,768.669861 
	C534.574341,762.294922 528.820862,760.942871 522.457214,761.047424 
	C518.963501,761.104858 515.461853,761.192749 511.975464,761.024231 
	C508.811188,760.871155 507.445587,762.020996 507.468170,765.310364 
	C507.560730,778.788818 507.549866,792.268677 507.458710,805.747253 
	C507.439392,808.604309 508.194122,810.111816 511.371979,810.016968 
	C516.359680,809.868042 521.361511,810.144653 526.346191,809.951782 
	C533.339905,809.681152 537.599548,806.260925 540.033508,798.767456 
M686.127014,803.626953 
	C686.986755,802.610901 687.907410,801.639954 688.696594,800.571716 
	C696.013428,790.667603 694.878174,776.220581 686.129578,767.611328 
	C677.213135,758.836914 663.123962,757.902466 653.199219,765.427063 
	C642.025208,773.898743 639.844177,789.975952 648.367310,801.043518 
	C657.284241,812.622253 673.432312,813.951050 686.127014,803.626953 
M464.486572,766.237976 
	C465.449799,765.185974 466.413025,764.133911 467.376312,763.081909 
	C466.248322,762.401489 465.133240,761.157959 463.990295,761.131775 
	C456.339325,760.956238 448.680450,761.141113 441.028381,760.992004 
	C437.770172,760.928467 437.171417,762.525940 437.188629,765.304749 
	C437.272125,778.783752 437.322510,792.264343 437.187866,805.742310 
	C437.154907,809.041138 438.338867,810.147034 441.541168,810.082031 
	C448.694000,809.936951 455.857147,810.182800 463.003265,809.920288 
	C464.486877,809.865723 465.914825,808.297729 467.368439,807.427246 
	C465.851135,806.630737 464.359009,805.209045 462.812134,805.146851 
	C456.374176,804.887573 449.919769,805.037781 443.333160,805.037781 
	C443.333160,799.068726 443.333160,793.658997 443.333160,787.731262 
	C449.093018,787.731262 454.562897,787.896118 460.010437,787.619751 
	C461.440552,787.547241 462.801361,786.107605 464.194000,785.295837 
	C462.746552,784.356506 461.342499,782.697449 459.843811,782.606995 
	C454.413513,782.279297 448.951416,782.477905 443.414978,782.477905 
	C443.414978,776.799561 443.414978,771.762573 443.414978,766.245544 
	C450.415649,766.245544 457.036652,766.245544 464.486572,766.237976 
M710.537170,787.499512 
	C710.533630,793.498535 710.547180,799.497559 710.518005,805.496460 
	C710.506775,807.814209 710.695007,810.365112 713.732056,809.725037 
	C714.868652,809.485413 716.179871,806.997070 716.276245,805.462769 
	C716.595093,800.382935 716.396545,795.270569 716.396545,789.677490 
	C722.503601,789.677490 727.972595,789.839661 733.419861,789.567566 
	C734.847107,789.496277 736.207031,788.077087 737.597839,787.276917 
	C736.218262,786.457214 734.871033,785.002563 733.453369,784.930298 
	C728.006409,784.652527 722.536865,784.817749 716.731323,784.817749 
	C716.731323,778.479187 716.731323,772.597229 716.731323,766.212402 
	C723.662170,766.212402 730.285156,766.357056 736.891785,766.093628 
	C738.258911,766.039124 739.565491,764.467224 740.899963,763.594666 
	C739.541016,762.754761 738.204590,761.234619 736.819275,761.188660 
	C729.495361,760.945496 722.157349,761.168579 714.828003,761.029419 
	C711.539429,760.966980 710.429626,762.325623 710.493835,765.504517 
	C710.635132,772.500305 710.537415,779.500916 710.537170,787.499512 
M591.240051,782.501221 
	C591.241943,790.491882 591.140991,798.485229 591.356567,806.470154 
	C591.388916,807.669250 592.902161,808.828308 593.730408,810.005859 
	C594.830261,808.873230 596.812622,807.790833 596.880371,806.599548 
	C597.210388,800.791931 597.028625,794.955139 597.028381,789.128723 
	C597.028137,781.697083 597.028320,774.265442 597.028320,766.238586 
	C600.622314,766.238586 603.599792,766.481689 606.504578,766.128235 
	C607.808716,765.969604 608.967712,764.617798 610.192627,763.807495 
	C608.918457,762.886108 607.666443,761.204956 606.366455,761.166931 
	C598.050049,760.924011 589.720520,760.940063 581.402588,761.155518 
	C580.204834,761.186584 579.046814,762.749268 577.870361,763.603149 
	C579.018738,764.486206 580.094055,765.984558 581.329773,766.131287 
	C584.422119,766.498291 587.587097,766.252380 591.240051,766.252380 
	C591.240051,771.577576 591.240051,776.539429 591.240051,782.501221 
M321.245605,798.455444 
	C321.241730,800.952087 320.882416,803.520142 321.363892,805.919373 
	C321.664917,807.419189 323.233002,808.664734 324.232544,810.024414 
	C325.163818,808.720337 326.809601,807.462830 326.898315,806.103760 
	C327.222931,801.131470 327.029785,796.125366 327.030182,791.131958 
	C327.030853,783.033630 327.030365,774.935242 327.030365,766.248657 
	C330.605225,766.248657 333.584900,766.491882 336.491913,766.138062 
	C337.794159,765.979675 338.950775,764.624939 340.173492,763.813049 
	C338.898499,762.888428 337.645813,761.201050 336.344940,761.163086 
	C328.029999,760.920288 319.701782,760.936951 311.385437,761.154724 
	C310.176483,761.186401 309.007690,762.750610 307.820282,763.605591 
	C308.984131,764.487610 310.075043,765.981628 311.326233,766.130798 
	C314.418610,766.499268 317.584381,766.251709 321.245148,766.251709 
	C321.245148,776.898499 321.245148,787.184631 321.245605,798.455444 
M396.221802,781.500244 
	C396.224182,789.666870 396.315735,797.834961 396.182709,805.999390 
	C396.133240,809.036682 397.256897,810.151794 400.275055,810.082825 
	C406.438354,809.941833 412.615051,810.215759 418.768402,809.932190 
	C420.283447,809.862366 421.730072,808.307556 423.208160,807.435425 
	C421.641663,806.633789 420.108765,805.230469 418.502533,805.140808 
	C413.237030,804.846863 407.944855,805.030457 402.300934,805.030457 
	C402.197052,802.807434 402.057526,801.180603 402.055084,799.553467 
	C402.037720,788.053528 402.154510,776.551331 401.909027,765.056641 
	C401.880096,763.702820 399.910980,762.390442 398.841248,761.058838 
	C397.975281,762.372864 396.441833,763.647766 396.362030,765.007935 
	C396.059845,770.157166 396.228973,775.334045 396.221802,781.500244 
M259.528198,805.068298 
	C257.268982,805.068298 255.009766,805.068298 252.388672,805.068298 
	C252.388672,802.528931 252.388138,800.715576 252.388748,798.902161 
	C252.392502,787.592896 252.479935,776.282288 252.287384,764.976379 
	C252.265091,763.667542 250.688416,762.385193 249.832382,761.090576 
	C248.821732,762.296936 246.949295,763.491211 246.932220,764.711487 
	C246.736679,778.678772 246.762024,792.650879 246.950348,806.618652 
	C246.965622,807.751282 248.578186,809.799438 249.507217,809.833740 
	C256.647827,810.097473 263.806396,810.073120 270.949707,809.841125 
	C271.950348,809.808594 272.898407,808.159363 273.870850,807.258423 
	C272.745911,806.533813 271.666901,805.287964 270.487213,805.184021 
	C267.186188,804.893005 263.843597,805.074036 259.528198,805.068298 
M368.742188,774.505554 
	C368.742188,771.884460 368.742188,769.263428 368.742188,766.255249 
	C372.472656,766.255249 375.636932,766.466431 378.746033,766.144592 
	C379.884918,766.026611 380.893005,764.645142 381.960724,763.840027 
	C380.853241,762.904480 379.766693,761.188293 378.634949,761.157898 
	C370.146057,760.930176 361.645691,760.933594 353.156219,761.149902 
	C351.947906,761.180725 350.778748,762.748901 349.591431,763.605530 
	C350.746124,764.486450 351.828308,765.980835 353.069763,766.127563 
	C356.170380,766.493958 359.343292,766.248352 363.030731,766.248352 
	C363.030731,768.285278 363.030701,769.911499 363.030762,771.537720 
	C363.031189,782.864380 362.936646,794.192810 363.144836,805.515625 
	C363.172791,807.035522 364.528503,809.625732 365.614227,809.823059 
	C368.678436,810.380066 368.746674,807.756165 368.744629,805.485596 
	C368.735626,795.491516 368.741608,785.497375 368.742188,774.505554 
M559.845703,761.151123 
	C559.155579,762.482666 557.879883,763.807983 557.865601,765.146729 
	C557.719849,778.805176 557.706787,792.466797 557.897705,806.124146 
	C557.916016,807.433350 559.562195,808.719727 560.452637,810.016724 
	C561.543030,808.712952 563.558472,807.425049 563.581116,806.102905 
	C563.817871,792.280518 563.812073,778.451477 563.606201,764.628296 
	C563.588257,763.421509 561.673889,762.242981 559.845703,761.151123 
M293.736023,803.231323 
	C293.731995,790.587646 293.819611,777.942383 293.596771,765.302551 
	C293.571655,763.877075 291.793915,762.482605 290.828888,761.073730 
	C289.814453,762.109741 287.931030,763.134033 287.916840,764.183594 
	C287.723480,778.488403 287.736572,792.797302 287.904266,807.102783 
	C287.915802,808.087158 289.814697,809.991272 290.388580,809.834167 
	C291.643951,809.490479 292.831573,808.243225 293.613739,807.075073 
	C294.078918,806.380310 293.721283,805.134583 293.736023,803.231323 
z"/>
<path fill="#15110F" opacity="1.000000" stroke="none" 
	d="
M289.537109,329.999695 
	C289.537109,296.837646 289.569885,264.175629 289.529694,231.513672 
	C289.461395,176.029144 308.138824,127.907265 345.792267,87.082268 
	C405.017853,22.868065 504.981415,3.690311 583.231628,42.799767 
	C652.538208,77.439163 691.333496,133.961975 699.729065,211.114380 
	C700.268372,216.070129 700.353088,221.094269 700.355103,226.086731 
	C700.391174,315.407288 700.620544,404.728729 700.291931,494.048096 
	C700.097107,546.999695 681.645081,593.314026 645.581360,631.937073 
	C584.727844,697.109131 493.042633,716.907959 411.968719,679.810913 
	C335.656342,644.892395 293.931854,583.563782 290.265015,499.441956 
	C287.814514,443.224121 289.630402,386.820282 289.537109,329.999695 
M406.415802,601.397034 
	C405.934631,601.285706 405.453522,601.077454 404.972260,601.077026 
	C381.717468,601.053833 358.462646,601.028748 335.207947,601.072327 
	C332.900299,601.076660 330.593414,601.511902 327.310516,601.846619 
	C329.352478,603.690308 330.663422,604.873901 331.979706,606.785400 
	C336.717865,613.094727 340.961121,619.862854 346.296326,625.618774 
	C357.692993,637.914062 370.381866,648.649841 384.261200,658.316345 
	C398.996765,668.579163 414.712769,676.455994 431.543121,681.734680 
	C445.321655,686.056152 459.716858,688.980713 474.057587,690.771851 
	C487.013245,692.389954 500.358490,692.732300 513.361938,691.630432 
	C527.741760,690.412048 542.184082,688.257874 555.711304,682.216553 
	C564.558350,678.265442 573.953552,675.549438 582.837708,671.671814 
	C600.854736,663.808167 616.514954,652.273071 630.597900,638.738098 
	C638.828979,630.827209 646.268982,622.078308 653.858887,613.523682 
	C656.364563,610.699585 658.225525,607.303467 661.220520,602.948730 
	C657.346619,602.948730 655.230591,602.948730 653.114624,602.948730 
	C576.125366,602.948730 499.136108,602.967346 422.146881,602.906128 
	C417.110107,602.902100 412.073792,602.286682 406.415802,601.397034 
M695.129944,290.500000 
	C695.129150,269.168488 695.496338,247.828079 694.982239,226.508942 
	C694.698181,214.733734 693.857422,202.821945 691.696411,191.265579 
	C673.154663,92.111015 583.732788,22.504200 482.983185,28.419500 
	C377.957489,34.585865 294.928162,122.499481 294.843140,227.756973 
	C294.771912,315.916473 294.754852,404.076172 294.865326,492.235626 
	C294.910095,527.973938 303.886627,561.400635 321.707367,592.453674 
	C323.611115,595.770996 325.662140,597.083923 329.541046,597.055176 
	C353.871063,596.874756 378.203125,596.967163 402.534485,596.951172 
	C404.130280,596.950134 405.725922,596.799194 407.900513,596.688538 
	C407.900513,564.454224 407.900513,532.730652 407.900513,500.575500 
	C440.931183,500.575500 473.353851,500.575500 506.416046,500.575500 
	C506.416046,468.915710 506.416046,437.690735 506.416046,405.940308 
	C569.628845,405.940308 632.198792,405.940308 695.129944,405.940308 
	C695.129944,367.436737 695.129944,329.468353 695.129944,290.500000 
M665.319702,596.417053 
	C670.454651,586.573120 676.206238,576.994812 680.587341,566.826111 
	C688.120300,549.342163 692.388000,530.923035 694.172852,511.917175 
	C694.651367,506.821747 692.751831,505.768677 688.070862,505.774536 
	C598.404724,505.886658 508.738251,505.893250 419.072083,505.766296 
	C414.255859,505.759491 412.812134,507.162354 412.850800,511.980194 
	C413.059296,537.978455 412.948151,563.979187 412.949768,589.979126 
	C412.950226,597.033447 412.954224,597.038574 420.096558,597.038757 
	C499.929596,597.040527 579.762634,597.041931 659.595703,597.031311 
	C661.255676,597.031128 662.915649,596.886475 665.319702,596.417053 
M695.112671,442.500000 
	C695.112671,432.359253 695.112671,422.218506 695.112671,411.654205 
	C692.404541,411.388245 690.126953,410.970734 687.849121,410.969269 
	C631.023499,410.932800 574.197693,410.982513 517.372375,410.855652 
	C513.052063,410.846008 511.611115,411.993439 511.642609,416.461914 
	C511.825775,442.457031 511.835083,468.455109 511.609314,494.449677 
	C511.568085,499.196198 512.812805,500.642761 517.686157,500.628937 
	C574.844604,500.466858 632.003723,500.529816 689.162659,500.518402 
	C690.945251,500.518066 692.727905,500.355865 695.112793,500.239777 
	C695.112793,481.067383 695.112793,462.283691 695.112671,442.500000 
z"/>
<path fill="#221A12" opacity="1.000000" stroke="none" 
	d="
M306.805237,906.540649 
	C316.562164,906.509705 325.894135,906.472717 335.225769,906.510986 
	C340.985413,906.534607 342.367218,907.853943 342.393341,913.546204 
	C342.451477,926.210693 342.532837,938.877991 342.286041,951.537903 
	C342.247375,953.522461 341.069183,956.214233 339.518951,957.329773 
	C318.057373,972.774536 280.577515,970.031555 261.804108,951.852905 
	C240.506104,931.229736 238.290756,898.871033 256.544464,875.026917 
	C273.865234,852.401428 305.961945,846.722229 331.181671,861.882874 
	C333.884186,863.507446 336.491241,865.349304 338.917419,867.361755 
	C342.754150,870.544312 342.906555,873.028381 339.628082,876.628357 
	C336.488892,880.075439 333.118439,883.313965 330.020599,886.796204 
	C326.768829,890.451477 323.705139,890.748962 319.669281,887.690552 
	C307.745148,878.654236 291.664795,880.502625 281.898163,891.732666 
	C272.286041,902.784912 272.686737,919.489136 282.941681,929.935547 
	C290.774902,937.915100 300.375366,939.952515 310.977264,937.388000 
	C312.476990,937.025208 313.529388,934.813232 314.788818,933.457153 
	C314.437073,933.009766 314.085358,932.562378 313.733612,932.114990 
	C312.459747,931.976807 311.187531,931.738159 309.911743,931.717102 
	C302.365753,931.593018 301.507660,930.770996 301.490631,923.432983 
	C301.482513,919.933533 301.496521,916.434082 301.486328,912.934631 
	C301.476440,909.544006 302.639618,907.068359 306.805237,906.540649 
M276.098450,864.402893 
	C274.822052,865.186462 273.513000,865.921814 272.274109,866.760742 
	C242.724594,886.767944 240.697433,928.642639 268.225128,951.214783 
	C288.438995,967.789856 316.031189,964.570923 335.978973,954.042297 
	C337.080048,953.461121 337.977722,951.402283 337.990204,950.022461 
	C338.097290,938.200806 338.079895,926.374512 337.777496,914.557922 
	C337.745422,913.303406 335.683990,911.082520 334.501099,911.039368 
	C326.185638,910.736877 317.852722,910.828369 309.528198,910.966431 
	C308.431183,910.984619 306.441559,911.929871 306.407104,912.533752 
	C306.152191,916.999207 305.776978,921.595581 306.689087,925.885254 
	C306.896454,926.860474 311.986145,926.810730 314.832458,927.204834 
	C315.944458,927.358887 317.067017,927.436340 318.098694,927.539978 
	C320.114502,939.833191 318.095673,942.395264 306.318024,942.810974 
	C304.321930,942.881409 302.319092,942.900269 300.323639,942.827148 
	C283.584503,942.213989 268.880554,925.524536 270.273804,909.086548 
	C272.816498,879.086060 304.274384,869.702820 322.306091,883.698364 
	C323.212677,884.402100 325.719177,884.440796 326.458038,883.728394 
	C330.141693,880.177002 333.483093,876.270569 336.920471,872.515686 
	C326.743927,861.070129 300.824799,850.962341 276.098450,864.402893 
z"/>
<path fill="#221A13" opacity="1.000000" stroke="none" 
	d="
M526.295776,863.362671 
	C546.681396,850.278564 567.488647,849.193176 587.916077,861.401855 
	C608.545837,873.731384 617.811707,892.886902 615.364197,916.742126 
	C612.970703,940.071777 600.060669,956.153320 578.017639,964.204529 
	C551.260620,973.977539 521.560852,962.360352 508.224945,937.444763 
	C494.750580,912.270447 502.254120,881.086426 526.295776,863.362671 
M507.828979,897.688965 
	C507.401459,903.464539 506.203064,909.305115 506.683960,915.004028 
	C508.473663,936.212158 519.546509,951.300415 539.206299,959.092590 
	C558.976135,966.928284 577.827148,963.773376 593.777161,949.661438 
	C609.805725,935.479797 614.699524,917.070923 609.313538,896.523987 
	C603.292542,873.554260 582.677002,857.983765 559.329163,857.700134 
	C535.507080,857.410767 515.267700,872.875610 507.828979,897.688965 
z"/>
<path fill="#211913" opacity="1.000000" stroke="none" 
	d="
M645.325745,857.926270 
	C647.435181,856.607727 649.424133,854.946655 651.443237,854.909058 
	C664.267334,854.669983 677.103638,854.548035 689.925598,854.840576 
	C718.151245,855.484436 740.969177,878.524902 742.867737,907.987854 
	C744.605103,934.949036 724.029724,961.418335 696.932556,964.792664 
	C681.491455,966.715515 665.684143,965.778259 650.039795,965.921570 
	C646.727539,965.951904 645.023682,963.680359 645.034424,960.285828 
	C645.050720,955.121155 645.025635,949.956299 645.036072,944.791565 
	C645.094177,915.972473 645.157593,887.153442 645.325745,857.926270 
M688.397095,961.215820 
	C715.265686,960.544373 737.301697,939.201904 738.165405,913.013855 
	C739.097717,884.746155 719.493225,861.838928 691.776123,859.662048 
	C679.861450,858.726379 667.825928,859.436646 655.865234,858.928711 
	C650.749146,858.711426 649.366577,860.311157 649.404053,865.366394 
	C649.627258,895.495178 649.512817,925.626465 649.527954,955.756897 
	C649.528809,957.372864 649.677429,958.988770 649.787415,961.215454 
	C662.547241,961.215454 674.985107,961.215454 688.397095,961.215820 
z"/>
<path fill="#211912" opacity="1.000000" stroke="none" 
	d="
M431.400208,853.749146 
	C458.432526,858.275085 478.331573,879.551453 480.219360,905.538818 
	C482.189911,932.665527 466.837158,956.302185 441.922394,964.499329 
	C416.262848,972.941467 388.510620,963.504211 374.811676,940.678345 
	C362.716553,920.524841 362.712311,899.514832 375.391174,879.702759 
	C388.180939,859.717407 407.214172,851.208557 431.400208,853.749146 
M402.094513,958.618530 
	C407.885864,960.049194 413.617188,962.360962 419.478821,962.760376 
	C447.222290,964.650818 472.032013,945.952698 475.802948,915.702759 
	C478.963623,890.348633 459.910767,864.065430 433.809235,858.777588 
	C407.747467,853.497803 381.897583,868.560120 373.475067,893.933411 
	C364.983337,919.515198 376.588501,946.269287 402.094513,958.618530 
z"/>
<path fill="#151515" opacity="1.000000" stroke="none" 
	d="
M539.951294,799.135986 
	C537.599548,806.260925 533.339905,809.681152 526.346191,809.951782 
	C521.361511,810.144653 516.359680,809.868042 511.371979,810.016968 
	C508.194122,810.111816 507.439392,808.604309 507.458710,805.747253 
	C507.549866,792.268677 507.560730,778.788818 507.468170,765.310364 
	C507.445587,762.020996 508.811188,760.871155 511.975464,761.024231 
	C515.461853,761.192749 518.963501,761.104858 522.457214,761.047424 
	C528.820862,760.942871 534.574341,762.294922 537.455139,768.669861 
	C540.294495,774.953003 538.201904,780.303345 532.913635,784.953125 
	C537.721619,788.448669 541.166504,792.516357 539.951294,799.135986 
M512.933044,801.320740 
	C512.606628,803.960144 513.430237,805.359314 516.431702,805.141052 
	C519.397034,804.925415 522.398071,805.226929 525.368896,805.053711 
	C530.360962,804.762634 533.644653,801.616150 533.959839,797.082397 
	C534.253845,792.854675 531.035278,788.845276 526.175598,788.324524 
	C521.980713,787.875000 517.699585,788.231262 512.933594,788.231262 
	C512.933594,792.496460 512.933594,796.429016 512.933044,801.320740 
M523.121521,766.153259 
	C519.892090,766.153259 516.662720,766.153259 513.561157,766.153259 
	C513.561157,772.178101 513.561157,777.371765 513.561157,782.883484 
	C516.930481,782.883484 519.891907,782.920532 522.852112,782.875732 
	C528.904480,782.784119 531.975769,780.223022 532.295044,775.065613 
	C532.621521,769.792847 530.259460,767.258057 523.121521,766.153259 
z"/>
<path fill="#191919" opacity="1.000000" stroke="none" 
	d="
M685.866089,803.867432 
	C673.432312,813.951050 657.284241,812.622253 648.367310,801.043518 
	C639.844177,789.975952 642.025208,773.898743 653.199219,765.427063 
	C663.123962,757.902466 677.213135,758.836914 686.129578,767.611328 
	C694.878174,776.220581 696.013428,790.667603 688.696594,800.571716 
	C687.907410,801.639954 686.986755,802.610901 685.866089,803.867432 
M664.145264,805.018250 
	C664.968811,805.140076 665.788452,805.310791 666.616455,805.376404 
	C676.582947,806.165527 685.356567,799.783325 687.726135,790.036926 
	C690.016724,780.615417 684.754944,770.820679 675.365112,767.026917 
	C666.538330,763.460632 656.248230,767.168945 651.217590,775.729187 
	C644.620483,786.954834 650.063843,800.032837 664.145264,805.018250 
z"/>
<path fill="#1D1D1D" opacity="1.000000" stroke="none" 
	d="
M464.072113,766.241760 
	C457.036652,766.245544 450.415649,766.245544 443.414978,766.245544 
	C443.414978,771.762573 443.414978,776.799561 443.414978,782.477905 
	C448.951416,782.477905 454.413513,782.279297 459.843811,782.606995 
	C461.342499,782.697449 462.746552,784.356506 464.194000,785.295837 
	C462.801361,786.107605 461.440552,787.547241 460.010437,787.619751 
	C454.562897,787.896118 449.093018,787.731262 443.333160,787.731262 
	C443.333160,793.658997 443.333160,799.068726 443.333160,805.037781 
	C449.919769,805.037781 456.374176,804.887573 462.812134,805.146851 
	C464.359009,805.209045 465.851135,806.630737 467.368439,807.427246 
	C465.914825,808.297729 464.486877,809.865723 463.003265,809.920288 
	C455.857147,810.182800 448.694000,809.936951 441.541168,810.082031 
	C438.338867,810.147034 437.154907,809.041138 437.187866,805.742310 
	C437.322510,792.264343 437.272125,778.783752 437.188629,765.304749 
	C437.171417,762.525940 437.770172,760.928467 441.028381,760.992004 
	C448.680450,761.141113 456.339325,760.956238 463.990295,761.131775 
	C465.133240,761.157959 466.248322,762.401489 467.376282,763.081909 
	C466.413025,764.133911 465.449799,765.185974 464.072113,766.241760 
z"/>
<path fill="#131313" opacity="1.000000" stroke="none" 
	d="
M710.537231,786.999512 
	C710.537415,779.500916 710.635132,772.500305 710.493835,765.504517 
	C710.429626,762.325623 711.539429,760.966980 714.828003,761.029419 
	C722.157349,761.168579 729.495361,760.945496 736.819275,761.188660 
	C738.204590,761.234619 739.541016,762.754761 740.899963,763.594604 
	C739.565491,764.467224 738.258911,766.039124 736.891785,766.093628 
	C730.285156,766.357056 723.662170,766.212402 716.731323,766.212402 
	C716.731323,772.597229 716.731323,778.479187 716.731323,784.817749 
	C722.536865,784.817749 728.006409,784.652527 733.453369,784.930298 
	C734.871033,785.002563 736.218262,786.457214 737.597839,787.276917 
	C736.207031,788.077087 734.847107,789.496277 733.419861,789.567566 
	C727.972595,789.839661 722.503601,789.677490 716.396545,789.677490 
	C716.396545,795.270569 716.595093,800.382935 716.276245,805.462769 
	C716.179871,806.997070 714.868652,809.485413 713.732056,809.725037 
	C710.695007,810.365112 710.506775,807.814209 710.518005,805.496460 
	C710.547180,799.497559 710.533630,793.498535 710.537231,786.999512 
z"/>
<path fill="#1D1D1D" opacity="1.000000" stroke="none" 
	d="
M591.240051,782.001282 
	C591.240051,776.539429 591.240051,771.577576 591.240051,766.252380 
	C587.587097,766.252380 584.422119,766.498291 581.329773,766.131287 
	C580.094055,765.984558 579.018738,764.486206 577.870361,763.603149 
	C579.046814,762.749268 580.204834,761.186584 581.402588,761.155518 
	C589.720520,760.940063 598.050049,760.924011 606.366455,761.166931 
	C607.666443,761.204956 608.918457,762.886108 610.192627,763.807495 
	C608.967712,764.617798 607.808716,765.969604 606.504578,766.128235 
	C603.599792,766.481689 600.622314,766.238586 597.028320,766.238586 
	C597.028320,774.265442 597.028137,781.697083 597.028381,789.128723 
	C597.028625,794.955139 597.210388,800.791931 596.880371,806.599548 
	C596.812622,807.790833 594.830261,808.873230 593.730408,810.005859 
	C592.902161,808.828308 591.388916,807.669250 591.356567,806.470154 
	C591.140991,798.485229 591.241943,790.491882 591.240051,782.001282 
z"/>
<path fill="#1D1D1D" opacity="1.000000" stroke="none" 
	d="
M321.245361,797.963135 
	C321.245148,787.184631 321.245148,776.898499 321.245148,766.251709 
	C317.584381,766.251709 314.418610,766.499268 311.326233,766.130798 
	C310.075043,765.981628 308.984131,764.487610 307.820282,763.605591 
	C309.007690,762.750610 310.176483,761.186401 311.385437,761.154724 
	C319.701782,760.936951 328.029999,760.920288 336.344940,761.163086 
	C337.645813,761.201050 338.898499,762.888428 340.173492,763.813049 
	C338.950775,764.624939 337.794159,765.979675 336.491913,766.138062 
	C333.584900,766.491882 330.605225,766.248657 327.030365,766.248657 
	C327.030365,774.935242 327.030853,783.033630 327.030182,791.131958 
	C327.029785,796.125366 327.222931,801.131470 326.898315,806.103760 
	C326.809601,807.462830 325.163818,808.720337 324.232544,810.024414 
	C323.233002,808.664734 321.664917,807.419189 321.363892,805.919373 
	C320.882416,803.520142 321.241730,800.952087 321.245361,797.963135 
z"/>
<path fill="#1F1F1F" opacity="1.000000" stroke="none" 
	d="
M396.221802,781.000427 
	C396.228973,775.334045 396.059845,770.157166 396.362030,765.007935 
	C396.441833,763.647766 397.975281,762.372864 398.841248,761.058838 
	C399.910980,762.390442 401.880096,763.702820 401.909027,765.056641 
	C402.154510,776.551331 402.037720,788.053528 402.055084,799.553467 
	C402.057526,801.180603 402.197052,802.807434 402.300934,805.030457 
	C407.944855,805.030457 413.237030,804.846863 418.502533,805.140808 
	C420.108765,805.230469 421.641663,806.633789 423.208160,807.435425 
	C421.730072,808.307556 420.283447,809.862366 418.768402,809.932190 
	C412.615051,810.215759 406.438354,809.941833 400.275055,810.082825 
	C397.256897,810.151794 396.133240,809.036682 396.182709,805.999390 
	C396.315735,797.834961 396.224182,789.666870 396.221802,781.000427 
z"/>
<path fill="#141414" opacity="1.000000" stroke="none" 
	d="
M260.022797,805.068542 
	C263.843597,805.074036 267.186188,804.893005 270.487213,805.184021 
	C271.666901,805.287964 272.745911,806.533813 273.870850,807.258423 
	C272.898407,808.159363 271.950348,809.808594 270.949707,809.841125 
	C263.806396,810.073120 256.647827,810.097473 249.507217,809.833740 
	C248.578186,809.799438 246.965622,807.751282 246.950348,806.618652 
	C246.762024,792.650879 246.736679,778.678772 246.932220,764.711487 
	C246.949295,763.491211 248.821732,762.296936 249.832397,761.090576 
	C250.688416,762.385193 252.265091,763.667542 252.287384,764.976379 
	C252.479935,776.282288 252.392502,787.592896 252.388748,798.902161 
	C252.388138,800.715576 252.388672,802.528931 252.388672,805.068298 
	C255.009766,805.068298 257.268982,805.068298 260.022797,805.068542 
z"/>
<path fill="#1E1E1E" opacity="1.000000" stroke="none" 
	d="
M368.742188,775.004395 
	C368.741608,785.497375 368.735626,795.491516 368.744629,805.485596 
	C368.746674,807.756165 368.678436,810.380066 365.614227,809.823059 
	C364.528503,809.625732 363.172791,807.035522 363.144836,805.515625 
	C362.936646,794.192810 363.031189,782.864380 363.030762,771.537720 
	C363.030701,769.911499 363.030731,768.285278 363.030731,766.248352 
	C359.343292,766.248352 356.170380,766.493958 353.069763,766.127563 
	C351.828308,765.980835 350.746124,764.486450 349.591431,763.605530 
	C350.778748,762.748901 351.947906,761.180725 353.156219,761.149902 
	C361.645691,760.933594 370.146057,760.930176 378.634949,761.157898 
	C379.766693,761.188293 380.853241,762.904480 381.960754,763.840088 
	C380.893005,764.645142 379.884918,766.026611 378.746033,766.144592 
	C375.636932,766.466431 372.472656,766.255249 368.742188,766.255249 
	C368.742188,769.263428 368.742188,771.884460 368.742188,775.004395 
z"/>
<path fill="#1D1D1D" opacity="1.000000" stroke="none" 
	d="
M560.243042,761.101196 
	C561.673889,762.242981 563.588257,763.421509 563.606201,764.628296 
	C563.812073,778.451477 563.817871,792.280518 563.581116,806.102905 
	C563.558472,807.425049 561.543030,808.712952 560.452637,810.016724 
	C559.562195,808.719727 557.916016,807.433350 557.897705,806.124146 
	C557.706787,792.466797 557.719849,778.805176 557.865601,765.146729 
	C557.879883,763.807983 559.155579,762.482666 560.243042,761.101196 
z"/>
<path fill="#1D1D1D" opacity="1.000000" stroke="none" 
	d="
M293.734802,803.683960 
	C293.721283,805.134583 294.078918,806.380310 293.613739,807.075073 
	C292.831573,808.243225 291.643951,809.490479 290.388580,809.834167 
	C289.814697,809.991272 287.915802,808.087158 287.904266,807.102783 
	C287.736572,792.797302 287.723480,778.488403 287.916840,764.183594 
	C287.931030,763.134033 289.814453,762.109741 290.828888,761.073730 
	C291.793915,762.482605 293.571655,763.877075 293.596771,765.302551 
	C293.819611,777.942383 293.731995,790.587646 293.734802,803.683960 
z"/>
<path fill="#E4CDB5" opacity="1.000000" stroke="none" 
	d="
M695.129944,291.000000 
	C695.129944,329.468353 695.129944,367.436737 695.129944,405.940308 
	C632.198792,405.940308 569.628845,405.940308 506.416046,405.940308 
	C506.416046,437.690735 506.416046,468.915710 506.416046,500.575500 
	C473.353851,500.575500 440.931183,500.575500 407.900513,500.575500 
	C407.900513,532.730652 407.900513,564.454224 407.900513,596.688538 
	C405.725922,596.799194 404.130280,596.950134 402.534485,596.951172 
	C378.203125,596.967163 353.871063,596.874756 329.541046,597.055176 
	C325.662140,597.083923 323.611115,595.770996 321.707367,592.453674 
	C303.886627,561.400635 294.910095,527.973938 294.865326,492.235626 
	C294.754852,404.076172 294.771912,315.916473 294.843140,227.756973 
	C294.928162,122.499481 377.957489,34.585865 482.983185,28.419500 
	C583.732788,22.504200 673.154663,92.111015 691.696411,191.265579 
	C693.857422,202.821945 694.698181,214.733734 694.982239,226.508942 
	C695.496338,247.828079 695.129150,269.168488 695.129944,291.000000 
M455.066589,185.701477 
	C453.568085,185.700836 452.069611,185.696243 450.571106,185.700134 
	C416.987030,185.787415 389.710052,212.592636 389.233429,245.976044 
	C388.755219,279.469177 415.022125,307.252533 448.425751,308.585632 
	C482.392609,309.941193 510.720520,284.268646 512.279114,249.311127 
	C513.822998,214.683929 487.432709,188.235886 455.066589,185.701477 
M453.296051,367.474487 
	C453.747009,376.940674 454.110535,386.412628 454.739258,395.867004 
	C454.838318,397.356903 456.137421,398.767029 456.881622,400.214020 
	C457.554657,398.750763 458.334717,397.324249 458.854797,395.808533 
	C459.109100,395.067383 458.899536,394.159424 458.866333,393.328308 
	C457.963013,370.729950 457.098053,348.129791 456.058380,325.537689 
	C455.984161,323.924957 454.623962,322.371399 453.861725,320.790344 
	C453.199402,322.390564 451.935760,324.003418 451.969177,325.588989 
	C452.256592,339.224457 452.778229,352.854980 453.296051,367.474487 
M447.058228,98.238770 
	C447.001953,96.909042 447.231445,95.478485 446.808014,94.278305 
	C446.394623,93.106636 445.314392,92.170265 444.526886,91.130608 
	C443.910767,92.140038 443.142426,93.091995 442.731995,94.179085 
	C442.457916,94.904953 442.671295,95.824036 442.703918,96.655190 
	C443.356506,113.273964 444.011902,129.892624 444.672729,146.511063 
	C444.943665,153.324936 445.113708,160.146698 445.613098,166.944061 
	C445.703369,168.172546 447.172424,169.299728 448.004944,170.473679 
	C448.604156,169.123947 449.227264,167.783905 449.782501,166.416321 
	C449.894318,166.140839 449.736725,165.761292 449.723511,165.428940 
	C448.846130,143.330261 447.970764,121.231514 447.058228,98.238770 
M543.451904,227.688965 
	C559.362122,224.215302 575.282776,220.787521 591.163391,217.183456 
	C592.477295,216.885284 593.520203,215.393204 594.689087,214.455856 
	C593.323669,213.960678 591.820190,212.812302 590.613403,213.067459 
	C569.491821,217.533401 548.398376,222.134827 527.334717,226.866852 
	C526.146851,227.133743 525.269104,228.781113 524.247009,229.785980 
	C525.664124,230.161545 527.165344,231.041763 528.483215,230.822052 
	C533.230103,230.030670 537.915100,228.868408 543.451904,227.688965 
M361.973145,262.764008 
	C356.765686,263.881500 351.555511,264.986328 346.351349,266.118958 
	C334.315582,268.738464 322.268219,271.308899 310.270508,274.092926 
	C309.028900,274.381042 308.089844,275.973053 307.010376,276.960083 
	C308.413574,277.384674 309.889374,278.322845 311.206177,278.136566 
	C314.989258,277.601501 318.708649,276.614319 322.452026,275.799927 
	C339.540802,272.082306 356.640961,268.414703 373.695740,264.546967 
	C375.073761,264.234436 376.139282,262.544037 377.350006,261.493896 
	C375.740753,261.110565 374.070435,260.247406 372.534882,260.442963 
	C369.249756,260.861359 366.034332,261.827332 361.973145,262.764008 
M400.163422,187.019852 
	C386.466248,171.824951 372.796265,156.605286 359.015717,141.486404 
	C358.011108,140.384216 356.204956,140.012604 354.771454,139.301331 
	C354.409210,139.701721 354.046936,140.102112 353.684662,140.502502 
	C354.632416,142.084030 355.358734,143.863037 356.564209,145.214691 
	C363.872711,153.409409 371.287476,161.509415 378.672852,169.635513 
	C384.268219,175.792053 389.825684,181.984253 395.503510,188.063950 
	C397.086426,189.758865 399.165619,192.494247 400.163422,187.019852 
M523.123352,328.394257 
	C529.392883,335.270538 535.620239,342.186127 541.968994,348.988464 
	C543.172546,350.277985 544.857361,351.118469 546.320068,352.166138 
	C546.741272,351.822754 547.162415,351.479370 547.583618,351.135956 
	C547.058716,349.766541 546.873779,348.091156 545.957886,347.073669 
	C532.728271,332.376495 519.429321,317.741119 506.034180,303.194763 
	C505.095856,302.175812 503.271790,301.972504 501.859619,301.389862 
	C502.199463,302.958466 502.035706,304.967102 502.960052,306.024933 
	C509.409851,313.405884 516.084900,320.589966 523.123352,328.394257 
M500.861328,177.308151 
	C499.473633,179.168961 497.964844,180.956299 496.766205,182.931824 
	C496.365387,183.592392 496.756897,184.733734 496.786255,185.655319 
	C497.848389,185.572708 499.168396,185.853180 499.913452,185.324081 
	C501.090027,184.488602 501.916290,183.137283 502.829437,181.956787 
	C512.888916,168.951584 522.986267,155.974838 532.911133,142.867538 
	C533.912720,141.544846 533.852478,139.418213 534.285034,137.664673 
	C532.741516,138.474304 530.717224,138.903534 529.729065,140.152527 
	C520.146240,152.265182 510.737091,164.515289 500.861328,177.308151 
M483.830109,135.109543 
	C480.169800,146.522339 476.438019,157.913361 472.943542,169.376709 
	C472.526550,170.744705 473.402283,172.506805 473.678833,174.086212 
	C474.761841,173.047546 476.427521,172.199799 476.839874,170.941345 
	C482.338745,154.160736 487.707611,137.336716 492.929596,120.468010 
	C493.287933,119.310440 492.220551,117.711533 491.816223,116.317871 
	C490.842529,117.249863 489.387909,118.008308 488.978088,119.143799 
	C487.171051,124.151108 485.665039,129.267075 483.830109,135.109543 
M429.187744,320.331879 
	C428.704285,319.272369 428.220825,318.212860 427.737335,317.153351 
	C426.714966,318.223328 425.165405,319.120667 424.750031,320.389374 
	C419.370239,336.820465 414.106720,353.290375 408.971649,369.799561 
	C408.526703,371.230072 409.198334,373.007874 409.351288,374.624329 
	C410.574890,373.405243 412.440887,372.398132 412.923828,370.934631 
	C418.398041,354.346008 423.660583,337.687500 429.187744,320.331879 
M396.206390,319.772247 
	C398.652130,316.624084 401.259216,313.583282 403.461975,310.273407 
	C404.310150,308.998901 404.238556,307.112274 404.586060,305.504547 
	C403.108917,306.186127 401.129059,306.471252 400.231232,307.609680 
	C389.528870,321.180298 378.945404,334.845856 368.476715,348.597656 
	C367.554626,349.808868 367.658844,351.801361 367.286407,353.431000 
	C368.861328,352.658813 370.946106,352.291290 371.930725,351.050659 
	C379.986603,340.900116 387.837402,330.586792 396.206390,319.772247 
M560.516418,258.167572 
	C550.122498,256.796326 539.737305,255.348846 529.323364,254.151978 
	C528.047180,254.005295 526.616821,255.200760 525.257874,255.774261 
	C526.449280,256.641968 527.556030,258.103363 528.845032,258.287292 
	C545.330505,260.639587 561.836609,262.852264 578.357483,264.942200 
	C579.670837,265.108307 581.132324,264.103699 582.524963,263.643158 
	C581.249390,262.683990 580.083191,261.127563 578.679016,260.870239 
	C572.954102,259.821228 567.156250,259.169830 560.516418,258.167572 
M371.752930,232.753677 
	C355.799042,230.554962 339.851990,228.303223 323.880157,226.243729 
	C322.366913,226.048615 320.698181,227.059326 319.101654,227.510208 
	C320.509338,228.523560 321.817444,230.223892 323.339996,230.444519 
	C339.452606,232.779495 355.592987,234.929306 371.747406,236.957550 
	C373.207489,237.140884 374.818481,236.122070 376.359406,235.661530 
	C375.087555,234.730545 373.815704,233.799545 371.752930,232.753677 
M488.212433,331.134308 
	C486.500671,326.987671 484.966125,322.753448 482.983276,318.740753 
	C482.266510,317.290222 480.475372,316.370544 479.174500,315.208649 
	C479.143768,316.984314 479.107758,318.759888 479.092102,320.535706 
	C479.090790,320.684906 479.234222,320.832123 479.297333,320.985626 
	C485.111450,335.123383 490.861847,349.288147 496.833282,363.359100 
	C497.434723,364.776367 499.372711,365.626434 500.690399,366.739746 
	C500.719818,365.103455 501.250366,363.270691 500.698273,361.862366 
	C496.756592,351.808228 492.594177,341.840668 488.212433,331.134308 
M402.398865,133.277222 
	C407.801880,146.484375 413.147156,159.715897 418.694153,172.862320 
	C419.270813,174.228973 421.044922,175.090378 422.263428,176.186203 
	C422.414856,174.586990 423.113098,172.791031 422.620972,171.423401 
	C420.712677,166.120041 418.415436,160.957123 416.281860,155.734238 
	C412.391907,146.211838 408.580658,136.656174 404.553406,127.192337 
	C404.030212,125.962761 402.422272,125.194778 401.316803,124.212975 
	C401.091553,125.767815 400.609497,127.341324 400.720795,128.871689 
	C400.812836,130.136627 401.605957,131.350571 402.398865,133.277222 
M524.075745,281.617645 
	C521.994873,281.003845 519.914001,280.390076 516.809570,279.474365 
	C519.584167,285.400269 561.908264,307.349579 567.351440,305.824738 
	C565.289551,304.129700 563.961121,302.624237 562.301697,301.739258 
	C549.809387,295.076996 537.251831,288.536865 524.075745,281.617645 
M364.542603,202.790741 
	C369.538879,205.411392 374.487610,208.130814 379.568542,210.575500 
	C380.683105,211.111755 382.268005,210.670395 383.636322,210.679245 
	C382.962982,209.386917 382.376923,208.036438 381.573730,206.830643 
	C381.248535,206.342484 380.453033,206.163452 379.865814,205.854630 
	C366.943420,199.059006 354.050873,192.205048 341.055542,185.551895 
	C339.556366,184.784363 337.484314,185.135834 335.677856,184.968506 
	C336.856232,186.474304 337.725128,188.536392 339.264740,189.392807 
	C347.381195,193.907700 355.666809,198.118484 364.542603,202.790741 
M386.510559,285.400513 
	C384.981201,285.777740 383.229248,285.796875 381.957001,286.587738 
	C369.555908,294.296326 357.201782,302.082581 344.943634,310.015686 
	C343.741547,310.793671 343.269836,312.700256 342.459106,314.083008 
	C344.096313,313.895538 346.051117,314.223480 347.321411,313.440643 
	C359.611115,305.867004 371.824524,298.166595 383.940155,290.317810 
	C385.322510,289.422272 385.972656,287.396454 386.510559,285.400513 
M519.836670,199.401077 
	C519.282837,199.770981 518.605164,200.038361 518.198303,200.529907 
	C516.958435,202.027588 515.822937,203.611679 514.646851,205.162155 
	C516.577148,204.858154 518.845703,205.105774 520.384094,204.162552 
	C532.301575,196.855759 544.123047,189.388138 555.841675,181.766479 
	C557.320129,180.804886 558.028809,178.659714 559.094116,177.062897 
	C557.190247,177.452606 554.987427,177.355103 553.430359,178.310211 
	C542.364380,185.098038 531.430420,192.101151 519.836670,199.401077 
z"/>
<path fill="#8B5B3E" opacity="1.000000" stroke="none" 
	d="
M664.947632,596.613098 
	C662.915649,596.886475 661.255676,597.031128 659.595703,597.031311 
	C579.762634,597.041931 499.929596,597.040527 420.096558,597.038757 
	C412.954224,597.038574 412.950226,597.033447 412.949768,589.979126 
	C412.948151,563.979187 413.059296,537.978455 412.850800,511.980194 
	C412.812134,507.162354 414.255859,505.759491 419.072083,505.766296 
	C508.738251,505.893250 598.404724,505.886658 688.070862,505.774536 
	C692.751831,505.768677 694.651367,506.821747 694.172852,511.917175 
	C692.388000,530.923035 688.120300,549.342163 680.587341,566.826111 
	C676.206238,576.994812 670.454651,586.573120 664.947632,596.613098 
z"/>
<path fill="#3F1E16" opacity="1.000000" stroke="none" 
	d="
M407.037262,601.955688 
	C412.073792,602.286682 417.110107,602.902100 422.146881,602.906128 
	C499.136108,602.967346 576.125366,602.948730 653.114624,602.948730 
	C655.230591,602.948730 657.346619,602.948730 661.220520,602.948730 
	C658.225525,607.303467 656.364563,610.699585 653.858887,613.523682 
	C646.268982,622.078308 638.828979,630.827209 630.597900,638.738098 
	C616.514954,652.273071 600.854736,663.808167 582.837708,671.671814 
	C573.953552,675.549438 564.558350,678.265442 555.711304,682.216553 
	C542.184082,688.257874 527.741760,690.412048 513.361938,691.630432 
	C500.358490,692.732300 487.013245,692.389954 474.057587,690.771851 
	C459.716858,688.980713 445.321655,686.056152 431.543121,681.734680 
	C414.712769,676.455994 398.996765,668.579163 384.261200,658.316345 
	C370.381866,648.649841 357.692993,637.914062 346.296326,625.618774 
	C340.961121,619.862854 336.717865,613.094727 332.036926,606.022583 
	C334.065033,604.507385 336.031158,603.115662 338.007538,603.100891 
	C359.132477,602.943481 380.259125,603.030518 401.385010,602.959106 
	C403.270203,602.952698 405.153229,602.305359 407.037262,601.955688 
z"/>
<path fill="#A77853" opacity="1.000000" stroke="none" 
	d="
M695.112732,443.000000 
	C695.112793,462.283691 695.112793,481.067383 695.112793,500.239777 
	C692.727905,500.355865 690.945251,500.518066 689.162659,500.518402 
	C632.003723,500.529816 574.844604,500.466858 517.686157,500.628937 
	C512.812805,500.642761 511.568085,499.196198 511.609314,494.449677 
	C511.835083,468.455109 511.825775,442.457031 511.642609,416.461914 
	C511.611115,411.993439 513.052063,410.846008 517.372375,410.855652 
	C574.197693,410.982513 631.023499,410.932800 687.849121,410.969269 
	C690.126953,410.970734 692.404541,411.388245 695.112671,411.654205 
	C695.112671,422.218506 695.112671,432.359253 695.112732,443.000000 
z"/>
<path fill="#392826" opacity="1.000000" stroke="none" 
	d="
M406.726532,601.676392 
	C405.153229,602.305359 403.270203,602.952698 401.385010,602.959106 
	C380.259125,603.030518 359.132477,602.943481 338.007538,603.100891 
	C336.031158,603.115662 334.065033,604.507385 332.034241,605.658691 
	C330.663422,604.873901 329.352478,603.690308 327.310516,601.846619 
	C330.593414,601.511902 332.900299,601.076660 335.207947,601.072327 
	C358.462646,601.028748 381.717468,601.053833 404.972260,601.077026 
	C405.453522,601.077454 405.934631,601.285706 406.726532,601.676392 
z"/>
<path fill="#F3AD46" opacity="1.000000" stroke="none" 
	d="
M276.427185,864.225220 
	C300.824799,850.962341 326.743927,861.070129 336.920471,872.515686 
	C333.483093,876.270569 330.141693,880.177002 326.458038,883.728394 
	C325.719177,884.440796 323.212677,884.402100 322.306091,883.698364 
	C304.274384,869.702820 272.816498,879.086060 270.273804,909.086548 
	C268.880554,925.524536 283.584503,942.213989 300.323639,942.827148 
	C302.319092,942.900269 304.321930,942.881409 306.318024,942.810974 
	C318.095673,942.395264 320.114502,939.833191 318.098694,927.539978 
	C317.067017,927.436340 315.944458,927.358887 314.832458,927.204834 
	C311.986145,926.810730 306.896454,926.860474 306.689087,925.885254 
	C305.776978,921.595581 306.152191,916.999207 306.407104,912.533752 
	C306.441559,911.929871 308.431183,910.984619 309.528198,910.966431 
	C317.852722,910.828369 326.185638,910.736877 334.501099,911.039368 
	C335.683990,911.082520 337.745422,913.303406 337.777496,914.557922 
	C338.079895,926.374512 338.097290,938.200806 337.990204,950.022461 
	C337.977722,951.402283 337.080048,953.461121 335.978973,954.042297 
	C316.031189,964.570923 288.438995,967.789856 268.225128,951.214783 
	C240.697433,928.642639 242.724594,886.767944 272.274109,866.760742 
	C273.513000,865.921814 274.822052,865.186462 276.427185,864.225220 
z"/>
<path fill="#F3AD45" opacity="1.000000" stroke="none" 
	d="
M507.935944,897.288330 
	C515.267700,872.875610 535.507080,857.410767 559.329163,857.700134 
	C582.677002,857.983765 603.292542,873.554260 609.313538,896.523987 
	C614.699524,917.070923 609.805725,935.479797 593.777161,949.661438 
	C577.827148,963.773376 558.976135,966.928284 539.206299,959.092590 
	C519.546509,951.300415 508.473663,936.212158 506.683960,915.004028 
	C506.203064,909.305115 507.401459,903.464539 507.935944,897.288330 
M585.125854,929.578003 
	C593.354614,917.467590 593.526550,903.185242 585.581726,891.723267 
	C577.868896,880.596130 563.836914,875.290894 550.911438,878.615051 
	C537.363953,882.099243 527.856934,893.170776 526.211487,907.379822 
	C524.684998,920.561401 533.018738,934.866699 545.285278,940.120850 
	C559.659912,946.277832 574.100525,942.642578 585.125854,929.578003 
z"/>
<path fill="#F2AC44" opacity="1.000000" stroke="none" 
	d="
M687.910034,961.215637 
	C674.985107,961.215454 662.547241,961.215454 649.787415,961.215454 
	C649.677429,958.988770 649.528809,957.372864 649.527954,955.756897 
	C649.512817,925.626465 649.627258,895.495178 649.404053,865.366394 
	C649.366577,860.311157 650.749146,858.711426 655.865234,858.928711 
	C667.825928,859.436646 679.861450,858.726379 691.776123,859.662048 
	C719.493225,861.838928 739.097717,884.746155 738.165405,913.013855 
	C737.301697,939.201904 715.265686,960.544373 687.910034,961.215637 
M715.994568,899.606812 
	C711.865662,887.024414 703.170349,879.552734 690.198120,877.533447 
	C684.988770,876.722656 679.562988,877.413635 674.262695,877.039673 
	C670.218567,876.754272 668.802917,877.952759 668.854919,882.237244 
	C669.080933,900.875854 668.943665,919.518860 668.961304,938.160217 
	C668.962830,939.765991 669.132629,941.371582 669.284424,944.031616 
	C677.932617,943.380920 686.419067,943.848267 694.322266,941.922363 
	C711.949463,937.626892 720.488586,920.599243 715.994568,899.606812 
z"/>
<path fill="#F3AD45" opacity="1.000000" stroke="none" 
	d="
M401.744812,958.458984 
	C376.588501,946.269287 364.983337,919.515198 373.475067,893.933411 
	C381.897583,868.560120 407.747467,853.497803 433.809235,858.777588 
	C459.910767,864.065430 478.963623,890.348633 475.802948,915.702759 
	C472.032013,945.952698 447.222290,964.650818 419.478821,962.760376 
	C413.617188,962.360962 407.885864,960.049194 401.744812,958.458984 
M394.183929,895.795776 
	C393.108063,900.784058 391.233643,905.752747 391.111115,910.764343 
	C390.786346,924.048096 397.278473,933.845886 409.006561,939.588440 
	C421.137573,945.528259 433.094177,944.159424 443.735016,935.750305 
	C454.113586,927.548645 457.667938,916.448730 455.191650,903.641296 
	C452.661957,890.557678 441.843994,880.189819 429.372162,878.166443 
	C414.728058,875.790649 402.628326,881.679260 394.183929,895.795776 
z"/>
<path fill="#F3F3F3" opacity="1.000000" stroke="none" 
	d="
M512.933350,800.841187 
	C512.933594,796.429016 512.933594,792.496460 512.933594,788.231262 
	C517.699585,788.231262 521.980713,787.875000 526.175598,788.324524 
	C531.035278,788.845276 534.253845,792.854675 533.959839,797.082397 
	C533.644653,801.616150 530.360962,804.762634 525.368896,805.053711 
	C522.398071,805.226929 519.397034,804.925415 516.431702,805.141052 
	C513.430237,805.359314 512.606628,803.960144 512.933350,800.841187 
z"/>
<path fill="#F0F0F0" opacity="1.000000" stroke="none" 
	d="
M523.558228,766.155884 
	C530.259460,767.258057 532.621521,769.792847 532.295044,775.065613 
	C531.975769,780.223022 528.904480,782.784119 522.852112,782.875732 
	C519.891907,782.920532 516.930481,782.883484 513.561157,782.883484 
	C513.561157,777.371765 513.561157,772.178101 513.561157,766.153259 
	C516.662720,766.153259 519.892090,766.153259 523.558228,766.155884 
z"/>
<path fill="#F9F9F9" opacity="1.000000" stroke="none" 
	d="
M663.733032,804.913208 
	C650.063843,800.032837 644.620483,786.954834 651.217590,775.729187 
	C656.248230,767.168945 666.538330,763.460632 675.365112,767.026917 
	C684.754944,770.820679 690.016724,780.615417 687.726135,790.036926 
	C685.356567,799.783325 676.582947,806.165527 666.616455,805.376404 
	C665.788452,805.310791 664.968811,805.140076 663.733032,804.913208 
z"/>
<path fill="#24180F" opacity="1.000000" stroke="none" 
	d="
M455.512421,185.728546 
	C487.432709,188.235886 513.822998,214.683929 512.279114,249.311127 
	C510.720520,284.268646 482.392609,309.941193 448.425751,308.585632 
	C415.022125,307.252533 388.755219,279.469177 389.233429,245.976044 
	C389.710052,212.592636 416.987030,185.787415 450.571106,185.700134 
	C452.069611,185.696243 453.568085,185.700836 455.512421,185.728546 
M446.883698,189.922775 
	C414.442780,194.072723 393.344269,217.342163 393.707092,248.570831 
	C394.057159,278.697754 419.444977,303.834290 449.888367,304.195984 
	C481.085297,304.566681 507.093292,280.065369 508.072174,249.505188 
	C509.150116,215.850143 482.000610,188.352280 446.883698,189.922775 
z"/>
<path fill="#231D19" opacity="1.000000" stroke="none" 
	d="
M453.263000,366.980743 
	C452.778229,352.854980 452.256592,339.224457 451.969177,325.588989 
	C451.935760,324.003418 453.199402,322.390564 453.861725,320.790344 
	C454.623962,322.371399 455.984161,323.924957 456.058380,325.537689 
	C457.098053,348.129791 457.963013,370.729950 458.866333,393.328308 
	C458.899536,394.159424 459.109100,395.067383 458.854797,395.808533 
	C458.334717,397.324249 457.554657,398.750763 456.881653,400.214020 
	C456.137421,398.767029 454.838318,397.356903 454.739258,395.867004 
	C454.110535,386.412628 453.747009,376.940674 453.263000,366.980743 
z"/>
<path fill="#231C18" opacity="1.000000" stroke="none" 
	d="
M447.076721,98.685776 
	C447.970764,121.231514 448.846130,143.330261 449.723511,165.428940 
	C449.736725,165.761292 449.894318,166.140839 449.782501,166.416321 
	C449.227264,167.783905 448.604156,169.123947 448.004944,170.473694 
	C447.172424,169.299728 445.703369,168.172546 445.613098,166.944061 
	C445.113708,160.146698 444.943665,153.324936 444.672729,146.511063 
	C444.011902,129.892624 443.356506,113.273964 442.703918,96.655190 
	C442.671295,95.824036 442.457916,94.904953 442.731995,94.179085 
	C443.142426,93.091995 443.910767,92.140038 444.526886,91.130600 
	C445.314392,92.170265 446.394623,93.106636 446.808014,94.278305 
	C447.231445,95.478485 447.001953,96.909042 447.076721,98.685776 
z"/>
<path fill="#241D18" opacity="1.000000" stroke="none" 
	d="
M543.037720,227.767609 
	C537.915100,228.868408 533.230103,230.030670 528.483215,230.822052 
	C527.165344,231.041763 525.664124,230.161545 524.247009,229.785980 
	C525.269104,228.781113 526.146851,227.133743 527.334717,226.866852 
	C548.398376,222.134827 569.491821,217.533401 590.613403,213.067459 
	C591.820190,212.812302 593.323669,213.960678 594.689087,214.455841 
	C593.520203,215.393204 592.477295,216.885284 591.163391,217.183456 
	C575.282776,220.787521 559.362122,224.215302 543.037720,227.767609 
z"/>
<path fill="#231C18" opacity="1.000000" stroke="none" 
	d="
M362.381775,262.666534 
	C366.034332,261.827332 369.249756,260.861359 372.534882,260.442963 
	C374.070435,260.247406 375.740753,261.110565 377.350006,261.493896 
	C376.139282,262.544037 375.073761,264.234436 373.695740,264.546967 
	C356.640961,268.414703 339.540802,272.082306 322.452026,275.799927 
	C318.708649,276.614319 314.989258,277.601501 311.206177,278.136566 
	C309.889374,278.322845 308.413574,277.384674 307.010376,276.960083 
	C308.089844,275.973053 309.028900,274.381042 310.270508,274.092926 
	C322.268219,271.308899 334.315582,268.738464 346.351349,266.118958 
	C351.555511,264.986328 356.765686,263.881500 362.381775,262.666534 
z"/>
<path fill="#231B16" opacity="1.000000" stroke="none" 
	d="
M400.259888,187.329254 
	C399.165619,192.494247 397.086426,189.758865 395.503510,188.063950 
	C389.825684,181.984253 384.268219,175.792053 378.672852,169.635513 
	C371.287476,161.509415 363.872711,153.409409 356.564209,145.214691 
	C355.358734,143.863037 354.632416,142.084030 353.684662,140.502502 
	C354.046936,140.102112 354.409210,139.701721 354.771454,139.301331 
	C356.204956,140.012604 358.011108,140.384216 359.015717,141.486404 
	C372.796265,156.605286 386.466248,171.824951 400.259888,187.329254 
z"/>
<path fill="#211914" opacity="1.000000" stroke="none" 
	d="
M522.905579,328.115662 
	C516.084900,320.589966 509.409851,313.405884 502.960052,306.024933 
	C502.035706,304.967102 502.199463,302.958466 501.859619,301.389862 
	C503.271790,301.972504 505.095856,302.175812 506.034180,303.194763 
	C519.429321,317.741119 532.728271,332.376495 545.957886,347.073669 
	C546.873779,348.091156 547.058716,349.766541 547.583618,351.135956 
	C547.162415,351.479370 546.741272,351.822754 546.320068,352.166138 
	C544.857361,351.118469 543.172546,350.277985 541.968994,348.988464 
	C535.620239,342.186127 529.392883,335.270538 522.905579,328.115662 
z"/>
<path fill="#231C16" opacity="1.000000" stroke="none" 
	d="
M501.069855,177.017151 
	C510.737091,164.515289 520.146240,152.265182 529.729065,140.152527 
	C530.717224,138.903534 532.741516,138.474304 534.285034,137.664673 
	C533.852478,139.418213 533.912720,141.544846 532.911133,142.867538 
	C522.986267,155.974838 512.888916,168.951584 502.829437,181.956787 
	C501.916290,183.137283 501.090027,184.488602 499.913452,185.324081 
	C499.168396,185.853180 497.848389,185.572708 496.786255,185.655319 
	C496.756897,184.733734 496.365387,183.592392 496.766205,182.931824 
	C497.964844,180.956299 499.473633,179.168961 501.069855,177.017151 
z"/>
<path fill="#231C17" opacity="1.000000" stroke="none" 
	d="
M483.940063,134.726624 
	C485.665039,129.267075 487.171051,124.151108 488.978088,119.143799 
	C489.387909,118.008308 490.842529,117.249863 491.816223,116.317871 
	C492.220551,117.711533 493.287933,119.310440 492.929596,120.468010 
	C487.707611,137.336716 482.338745,154.160736 476.839874,170.941345 
	C476.427521,172.199799 474.761841,173.047546 473.678833,174.086212 
	C473.402283,172.506805 472.526550,170.744705 472.943542,169.376709 
	C476.438019,157.913361 480.169800,146.522339 483.940063,134.726624 
z"/>
<path fill="#231C17" opacity="1.000000" stroke="none" 
	d="
M429.083740,320.689819 
	C423.660583,337.687500 418.398041,354.346008 412.923828,370.934631 
	C412.440887,372.398132 410.574890,373.405243 409.351288,374.624329 
	C409.198334,373.007874 408.526703,371.230072 408.971649,369.799561 
	C414.106720,353.290375 419.370239,336.820465 424.750031,320.389374 
	C425.165405,319.120667 426.714966,318.223328 427.737335,317.153351 
	C428.220825,318.212860 428.704285,319.272369 429.083740,320.689819 
z"/>
<path fill="#221B16" opacity="1.000000" stroke="none" 
	d="
M395.978455,320.047607 
	C387.837402,330.586792 379.986603,340.900116 371.930725,351.050659 
	C370.946106,352.291290 368.861328,352.658813 367.286377,353.431000 
	C367.658844,351.801361 367.554626,349.808868 368.476715,348.597656 
	C378.945404,334.845856 389.528870,321.180298 400.231232,307.609680 
	C401.129059,306.471252 403.108917,306.186127 404.586060,305.504547 
	C404.238556,307.112274 404.310150,308.998901 403.461975,310.273407 
	C401.259216,313.583282 398.652130,316.624084 395.978455,320.047607 
z"/>
<path fill="#231C18" opacity="1.000000" stroke="none" 
	d="
M560.950867,258.269745 
	C567.156250,259.169830 572.954102,259.821228 578.679016,260.870239 
	C580.083191,261.127563 581.249390,262.683990 582.524963,263.643158 
	C581.132324,264.103699 579.670837,265.108307 578.357483,264.942200 
	C561.836609,262.852264 545.330505,260.639587 528.845032,258.287292 
	C527.556030,258.103363 526.449280,256.641968 525.257874,255.774261 
	C526.616821,255.200760 528.047180,254.005295 529.323364,254.151978 
	C539.737305,255.348846 550.122498,256.796326 560.950867,258.269745 
z"/>
<path fill="#231C18" opacity="1.000000" stroke="none" 
	d="
M372.148376,232.811111 
	C373.815704,233.799545 375.087555,234.730545 376.359406,235.661530 
	C374.818481,236.122070 373.207489,237.140884 371.747406,236.957550 
	C355.592987,234.929306 339.452606,232.779495 323.339996,230.444519 
	C321.817444,230.223892 320.509338,228.523560 319.101654,227.510223 
	C320.698181,227.059326 322.366913,226.048615 323.880157,226.243729 
	C339.851990,228.303223 355.799042,230.554962 372.148376,232.811111 
z"/>
<path fill="#231C16" opacity="1.000000" stroke="none" 
	d="
M488.357178,331.489929 
	C492.594177,341.840668 496.756592,351.808228 500.698273,361.862366 
	C501.250366,363.270691 500.719818,365.103455 500.690430,366.739746 
	C499.372711,365.626434 497.434723,364.776367 496.833282,363.359100 
	C490.861847,349.288147 485.111450,335.123383 479.297333,320.985626 
	C479.234222,320.832123 479.090790,320.684906 479.092102,320.535706 
	C479.107758,318.759888 479.143768,316.984314 479.174500,315.208649 
	C480.475372,316.370544 482.266510,317.290222 482.983276,318.740753 
	C484.966125,322.753448 486.500671,326.987671 488.357178,331.489929 
z"/>
<path fill="#211915" opacity="1.000000" stroke="none" 
	d="
M402.243652,132.932159 
	C401.605957,131.350571 400.812836,130.136627 400.720795,128.871689 
	C400.609497,127.341324 401.091553,125.767815 401.316803,124.212982 
	C402.422272,125.194778 404.030212,125.962761 404.553406,127.192337 
	C408.580658,136.656174 412.391907,146.211838 416.281860,155.734238 
	C418.415436,160.957123 420.712677,166.120041 422.620972,171.423401 
	C423.113098,172.791031 422.414856,174.586990 422.263428,176.186218 
	C421.044922,175.090378 419.270813,174.228973 418.694153,172.862320 
	C413.147156,159.715897 407.801880,146.484375 402.243652,132.932159 
z"/>
<path fill="#231C17" opacity="1.000000" stroke="none" 
	d="
M524.395264,281.788086 
	C537.251831,288.536865 549.809387,295.076996 562.301697,301.739258 
	C563.961121,302.624237 565.289551,304.129700 567.351440,305.824738 
	C561.908264,307.349579 519.584167,285.400269 516.809570,279.474365 
	C519.914001,280.390076 521.994873,281.003845 524.395264,281.788086 
z"/>
<path fill="#221B16" opacity="1.000000" stroke="none" 
	d="
M364.218170,202.612762 
	C355.666809,198.118484 347.381195,193.907700 339.264740,189.392807 
	C337.725128,188.536392 336.856232,186.474304 335.677856,184.968506 
	C337.484314,185.135834 339.556366,184.784363 341.055542,185.551895 
	C354.050873,192.205048 366.943420,199.059006 379.865814,205.854630 
	C380.453033,206.163452 381.248535,206.342484 381.573730,206.830643 
	C382.376923,208.036438 382.962982,209.386917 383.636322,210.679230 
	C382.268005,210.670395 380.683105,211.111755 379.568542,210.575500 
	C374.487610,208.130814 369.538879,205.411392 364.218170,202.612762 
z"/>
<path fill="#231C18" opacity="1.000000" stroke="none" 
	d="
M386.736450,285.647644 
	C385.972656,287.396454 385.322510,289.422272 383.940155,290.317810 
	C371.824524,298.166595 359.611115,305.867004 347.321411,313.440643 
	C346.051117,314.223480 344.096313,313.895538 342.459106,314.083008 
	C343.269836,312.700256 343.741547,310.793671 344.943634,310.015686 
	C357.201782,302.082581 369.555908,294.296326 381.957001,286.587738 
	C383.229248,285.796875 384.981201,285.777740 386.736450,285.647644 
z"/>
<path fill="#231C17" opacity="1.000000" stroke="none" 
	d="
M520.145508,199.218384 
	C531.430420,192.101151 542.364380,185.098038 553.430359,178.310211 
	C554.987427,177.355103 557.190247,177.452606 559.094116,177.062897 
	C558.028809,178.659714 557.320129,180.804886 555.841675,181.766479 
	C544.123047,189.388138 532.301575,196.855759 520.384094,204.162552 
	C518.845703,205.105774 516.577148,204.858154 514.646851,205.162140 
	C515.822937,203.611679 516.958435,202.027588 518.198303,200.529907 
	C518.605164,200.038361 519.282837,199.770981 520.145508,199.218384 
z"/>
<path fill="#221911" opacity="1.000000" stroke="none" 
	d="
M584.935486,929.882629 
	C574.100525,942.642578 559.659912,946.277832 545.285278,940.120850 
	C533.018738,934.866699 524.684998,920.561401 526.211487,907.379822 
	C527.856934,893.170776 537.363953,882.099243 550.911438,878.615051 
	C563.836914,875.290894 577.868896,880.596130 585.581726,891.723267 
	C593.526550,903.185242 593.354614,917.467590 584.935486,929.882629 
M583.096313,924.376953 
	C588.848206,913.321777 587.872437,901.594543 580.451965,892.594604 
	C572.973877,883.524963 561.158875,879.934204 550.321838,883.437622 
	C539.552490,886.919312 531.777222,896.799255 530.784241,908.264099 
	C529.715820,920.600098 537.339355,932.405640 549.203247,936.787109 
	C561.551270,941.347290 574.460571,936.823486 583.096313,924.376953 
z"/>
<path fill="#211812" opacity="1.000000" stroke="none" 
	d="
M716.115784,899.992554 
	C720.488586,920.599243 711.949463,937.626892 694.322266,941.922363 
	C686.419067,943.848267 677.932617,943.380920 669.284424,944.031616 
	C669.132629,941.371582 668.962830,939.765991 668.961304,938.160217 
	C668.943665,919.518860 669.080933,900.875854 668.854919,882.237244 
	C668.802917,877.952759 670.218567,876.754272 674.262695,877.039673 
	C679.562988,877.413635 684.988770,876.722656 690.198120,877.533447 
	C703.170349,879.552734 711.865662,887.024414 716.115784,899.992554 
M673.211548,930.390137 
	C673.211548,933.124329 673.211548,935.858521 673.211548,938.503540 
	C692.359375,940.048828 702.842407,936.346619 708.790833,925.728760 
	C714.813293,914.978760 714.791138,904.026062 708.016174,893.596680 
	C699.726257,880.835083 686.867249,881.008423 673.210327,882.012024 
	C673.210327,897.919983 673.210327,913.669312 673.211548,930.390137 
z"/>
<path fill="#231912" opacity="1.000000" stroke="none" 
	d="
M394.351685,895.462036 
	C402.628326,881.679260 414.728058,875.790649 429.372162,878.166443 
	C441.843994,880.189819 452.661957,890.557678 455.191650,903.641296 
	C457.667938,916.448730 454.113586,927.548645 443.735016,935.750305 
	C433.094177,944.159424 421.137573,945.528259 409.006561,939.588440 
	C397.278473,933.845886 390.786346,924.048096 391.111115,910.764343 
	C391.233643,905.752747 393.108063,900.784058 394.351685,895.462036 
M434.584198,884.633057 
	C423.266541,879.923645 412.880310,881.652832 404.126923,890.070679 
	C395.750946,898.125671 393.146240,908.138489 396.793152,919.355957 
	C400.612823,931.104858 412.172089,939.019897 424.341522,938.509338 
	C437.036133,937.976868 448.058960,928.795654 450.770813,916.495850 
	C453.579681,903.756042 447.585876,891.561768 434.584198,884.633057 
z"/>
<path fill="#F9AF42" opacity="1.000000" stroke="none" 
	d="
M447.342529,189.904953 
	C482.000610,188.352280 509.150116,215.850143 508.072174,249.505188 
	C507.093292,280.065369 481.085297,304.566681 449.888367,304.195984 
	C419.444977,303.834290 394.057159,278.697754 393.707092,248.570831 
	C393.344269,217.342163 414.442780,194.072723 447.342529,189.904953 
z"/>
<path fill="#FAFAFA" opacity="1.000000" stroke="none" 
	d="
M582.919434,924.705444 
	C574.460571,936.823486 561.551270,941.347290 549.203247,936.787109 
	C537.339355,932.405640 529.715820,920.600098 530.784241,908.264099 
	C531.777222,896.799255 539.552490,886.919312 550.321838,883.437622 
	C561.158875,879.934204 572.973877,883.524963 580.451965,892.594604 
	C587.872437,901.594543 588.848206,913.321777 582.919434,924.705444 
z"/>
<path fill="#F9F9F9" opacity="1.000000" stroke="none" 
	d="
M673.210938,929.904419 
	C673.210327,913.669312 673.210327,897.919983 673.210327,882.012024 
	C686.867249,881.008423 699.726257,880.835083 708.016174,893.596680 
	C714.791138,904.026062 714.813293,914.978760 708.790833,925.728760 
	C702.842407,936.346619 692.359375,940.048828 673.211548,938.503540 
	C673.211548,935.858521 673.211548,933.124329 673.210938,929.904419 
z"/>
<path fill="#FAFAFA" opacity="1.000000" stroke="none" 
	d="
M434.928741,884.799683 
	C447.585876,891.561768 453.579681,903.756042 450.770813,916.495850 
	C448.058960,928.795654 437.036133,937.976868 424.341522,938.509338 
	C412.172089,939.019897 400.612823,931.104858 396.793152,919.355957 
	C393.146240,908.138489 395.750946,898.125671 404.126923,890.070679 
	C412.880310,881.652832 423.266541,879.923645 434.928741,884.799683 
z"/>
</svg>