<svg id="Layer_1" data-name="Layer 1" xmlns="http://www.w3.org/2000/svg" viewBox="0 0 150 12.45"><path d="M.43,1.42A.28.28,0,0,1,.7,1.14H3.89a2.74,2.74,0,0,1,3,2.67A2.76,2.76,0,0,1,5.44,6.14,2.57,2.57,0,0,1,7.18,8.51,2.88,2.88,0,0,1,4,11.31H.7A.28.28,0,0,1,.43,11Zm3.7,8.92A1.8,1.8,0,0,0,6,8.49,1.94,1.94,0,0,0,3.89,6.7H1.49v3.64ZM3.89,5.7A1.68,1.68,0,0,0,5.63,3.89,1.61,1.61,0,0,0,3.89,2.14H1.52V5.7Z" fill="#231f20"/><path d="M11.11,1.42a.27.27,0,0,1,.27-.28H12a.28.28,0,0,1,.27.28v8.92h4.19a.27.27,0,0,1,.27.27V11a.27.27,0,0,1-.27.28h-5a.27.27,0,0,1-.27-.28Z" fill="#231f20"/><path d="M23.82,1a5.23,5.23,0,1,1,0,10.45,5.18,5.18,0,0,1-5.21-5.21A5.2,5.2,0,0,1,23.82,1Zm0,9.44a4.22,4.22,0,1,0-4.2-4.2A4.23,4.23,0,0,0,23.82,10.44Z" fill="#231f20"/><path d="M31.68,1.49a.25.25,0,0,1,.26-.35h.61a.31.31,0,0,1,.27.2l2,7.53h0l2.43-7.72A.26.26,0,0,1,37.57,1h.26a.25.25,0,0,1,.24.15l2.47,7.72h.06l2-7.53a.29.29,0,0,1,.26-.2h.61a.25.25,0,0,1,.26.35L41,11.25a.28.28,0,0,1-.27.2h-.23a.32.32,0,0,1-.25-.15L37.71,3.44h-.07L35.17,11.3a.3.3,0,0,1-.25.15h-.23a.27.27,0,0,1-.26-.2Z" fill="#231f20"/><path d="M56.36,1a5.08,5.08,0,0,1,3.52,1.35.28.28,0,0,1,0,.4l-.39.4c-.12.14-.23.13-.38,0A4.44,4.44,0,0,0,56.35,2a4.12,4.12,0,0,0-4.06,4.19,4.12,4.12,0,0,0,4.06,4.16,4.22,4.22,0,0,0,2.77-1.08c.15-.12.26-.11.35-.05l.44.39a.29.29,0,0,1,0,.4,5,5,0,0,1-3.53,1.4A5.23,5.23,0,1,1,56.36,1Z" fill="#231f20"/><path d="M62.56,10.93,67,1.15A.25.25,0,0,1,67.22,1h.15a.25.25,0,0,1,.24.15L72,10.93a.26.26,0,0,1-.24.38h-.59a.26.26,0,0,1-.24-.16l-1.08-2.4H64.69l-1.06,2.4a.26.26,0,0,1-.24.16h-.58A.26.26,0,0,1,62.56,10.93Zm6.9-3.08c-.71-1.58-1.41-3.18-2.12-4.76h-.12L65.1,7.85Z" fill="#231f20"/><path d="M75.19,1.26A.27.27,0,0,1,75.46,1h.37l6.55,8.16h0V1.42a.28.28,0,0,1,.28-.28h.5a.29.29,0,0,1,.28.28v9.77a.27.27,0,0,1-.28.26h-.26L76.26,3.13h0V11a.28.28,0,0,1-.28.28h-.51a.28.28,0,0,1-.27-.28Z" fill="#231f20"/><path d="M88,1.42a.27.27,0,0,1,.26-.28h3.25a5.09,5.09,0,1,1,0,10.17H88.21A.27.27,0,0,1,88,11Zm3.28,8.89a4,4,0,0,0,4.11-4.1,4,4,0,0,0-4.11-4.08H89.05v8.18Z" fill="#231f20"/><path d="M100.35,1.42a.28.28,0,0,1,.28-.28h.57a.28.28,0,0,1,.27.28v8.92h4.19a.27.27,0,0,1,.27.27V11a.27.27,0,0,1-.27.28h-5a.28.28,0,0,1-.28-.28Z" fill="#231f20"/><path d="M109.09,1.42a.27.27,0,0,1,.27-.28h5.73a.27.27,0,0,1,.27.28v.42a.27.27,0,0,1-.27.27h-4.88V5.66h4.17a.28.28,0,0,1,.27.27v.43a.27.27,0,0,1-.27.27h-4.17v3.71h4.88a.27.27,0,0,1,.27.27V11a.27.27,0,0,1-.27.28h-5.73a.27.27,0,0,1-.27-.28Z" fill="#231f20"/><path d="M128.32,1a5.08,5.08,0,0,1,3.51,1.35.28.28,0,0,1,0,.4l-.4.4c-.11.14-.23.13-.37,0A4.44,4.44,0,0,0,128.3,2a4.12,4.12,0,0,0-4.05,4.19,4.11,4.11,0,0,0,4.05,4.16,4.23,4.23,0,0,0,2.78-1.08.27.27,0,0,1,.35-.05l.43.39a.28.28,0,0,1,0,.4,5,5,0,0,1-3.53,1.4,5.23,5.23,0,1,1,0-10.45Z" fill="#231f20"/><path d="M139.84,1a5.23,5.23,0,1,1-5.22,5.24A5.22,5.22,0,0,1,139.84,1Zm0,9.44a4.22,4.22,0,1,0-4.2-4.2A4.22,4.22,0,0,0,139.84,10.44Z" fill="#231f20"/><path d="M148.74,9.8a.83.83,0,1,1,0,1.65.83.83,0,1,1,0-1.65Z" fill="#231f20"/></svg>