<svg id="Layer_1" data-name="Layer 1" xmlns="http://www.w3.org/2000/svg" viewBox="0 0 1000 83"><path d="M2.77,9.24A1.85,1.85,0,0,1,4.61,7.4H25.83c11.82,0,19.86,7.65,19.86,17.83,0,7.46-4.94,12.88-9.49,15.49,5.13,2.14,11.62,6.88,11.62,15.8,0,10.85-8.62,18.69-21.12,18.69H4.61a1.84,1.84,0,0,1-1.84-1.84ZM27.48,68.72a11.94,11.94,0,0,0,12.21-12.3c0-6.88-6.31-11.92-13.86-11.92h-16V68.72Zm-1.65-30.9c7.46,0,11.63-5.33,11.63-12.11,0-7-4.17-11.62-11.63-11.62H10.05V37.82Z" fill="#fff"/><path d="M74,9.24A1.85,1.85,0,0,1,75.8,7.4h3.79a1.91,1.91,0,0,1,1.83,1.84V68.72h27.9a1.83,1.83,0,0,1,1.84,1.84v2.81a1.83,1.83,0,0,1-1.84,1.84H75.8A1.84,1.84,0,0,1,74,73.37Z" fill="#fff"/><path d="M158.76,6.43A34.88,34.88,0,1,1,124,41.4,34.81,34.81,0,0,1,158.76,6.43Zm0,63a28.09,28.09,0,1,0-28-28A28.16,28.16,0,0,0,158.76,69.4Z" fill="#fff"/><path d="M211.16,9.73a1.69,1.69,0,0,1,1.75-2.33H217a2,2,0,0,1,1.75,1.36l13.47,50.17h.38L248.75,7.5a1.65,1.65,0,0,1,1.65-1.07h1.74a1.74,1.74,0,0,1,1.64,1.07l16.48,51.43h.38L283.81,8.76a2,2,0,0,1,1.75-1.36h4.06a1.69,1.69,0,0,1,1.75,2.33L273.06,74.82a1.86,1.86,0,0,1-1.74,1.36h-1.56a2,2,0,0,1-1.63-1.06L251.37,22.71h-.49L234.42,75.12a2,2,0,0,1-1.65,1.06h-1.56a1.86,1.86,0,0,1-1.74-1.36Z" fill="#fff"/><path d="M375.71,6.43c9.79,0,16.86,3.4,23.45,9a1.87,1.87,0,0,1,.09,2.71l-2.61,2.62c-.77,1-1.55.87-2.52-.09a29.34,29.34,0,0,0-18.5-7.27c-15.31,0-27,12.88-27,27.9s11.72,27.8,27,27.8c8.43,0,13.37-3.39,18.5-7.26a1.84,1.84,0,0,1,2.33-.3l2.91,2.62a1.85,1.85,0,0,1-.11,2.61,33.21,33.21,0,0,1-23.54,9.4,34.88,34.88,0,1,1,0-69.75Z" fill="#fff"/><path d="M417,72.69,446.49,7.5a1.75,1.75,0,0,1,1.65-1.07h1a1.73,1.73,0,0,1,1.64,1.07L480,72.69a1.71,1.71,0,0,1-1.65,2.52h-3.87a1.79,1.79,0,0,1-1.65-1.07l-7.17-16H431.28l-7.06,16a1.79,1.79,0,0,1-1.65,1.07h-3.88A1.71,1.71,0,0,1,417,72.69Zm46-20.53c-4.74-10.56-9.39-21.22-14.14-31.78h-.77L434,52.16Z" fill="#fff"/><path d="M501.26,8.18a1.82,1.82,0,0,1,1.84-1.75h2.43l43.69,54.44h.19V9.24a1.84,1.84,0,0,1,1.84-1.84h3.39a1.91,1.91,0,0,1,1.84,1.84V74.43a1.82,1.82,0,0,1-1.84,1.75H552.9l-44.47-55.5h-.1V73.37a1.83,1.83,0,0,1-1.84,1.84H503.1a1.9,1.9,0,0,1-1.84-1.84Z" fill="#fff"/><path d="M586.33,9.24a1.83,1.83,0,0,1,1.75-1.84h21.69a33.91,33.91,0,1,1,0,67.81H588.08a1.82,1.82,0,0,1-1.75-1.84Zm21.9,59.29c15.89,0,27.41-11.33,27.41-27.32S624.12,14,608.23,14H593.7V68.53Z" fill="#fff"/><path d="M669.06,9.24A1.85,1.85,0,0,1,670.9,7.4h3.78a1.91,1.91,0,0,1,1.84,1.84V68.72h27.9a1.83,1.83,0,0,1,1.84,1.84v2.81a1.83,1.83,0,0,1-1.84,1.84H670.9a1.84,1.84,0,0,1-1.84-1.84Z" fill="#fff"/><path d="M727.28,9.24a1.85,1.85,0,0,1,1.84-1.84H767.3a1.84,1.84,0,0,1,1.83,1.84v2.81a1.83,1.83,0,0,1-1.83,1.84H734.74V37.53h27.81a1.91,1.91,0,0,1,1.84,1.84v2.81A1.84,1.84,0,0,1,762.55,44H734.74v24.7H767.3a1.83,1.83,0,0,1,1.83,1.84v2.81a1.83,1.83,0,0,1-1.83,1.84H729.12a1.84,1.84,0,0,1-1.84-1.84Z" fill="#fff"/><path d="M855.51,6.43c9.78,0,16.85,3.4,23.44,9a1.87,1.87,0,0,1,.1,2.71l-2.62,2.62c-.77,1-1.55.87-2.51-.09a29.39,29.39,0,0,0-18.51-7.27c-15.31,0-27,12.88-27,27.9s11.71,27.8,27,27.8c8.43,0,13.37-3.39,18.51-7.26a1.83,1.83,0,0,1,2.32-.3l2.9,2.62a1.83,1.83,0,0,1-.09,2.61,33.21,33.21,0,0,1-23.54,9.4,34.88,34.88,0,1,1,0-69.75Z" fill="#fff"/><path d="M932.32,6.43a34.88,34.88,0,1,1-34.78,35A34.8,34.8,0,0,1,932.32,6.43Zm0,63a28.09,28.09,0,1,0-28-28A28.16,28.16,0,0,0,932.32,69.4Z" fill="#fff"/><path d="M991.71,65.13a5.53,5.53,0,0,1,0,11.05,5.59,5.59,0,0,1-5.53-5.52A5.53,5.53,0,0,1,991.71,65.13Z" fill="#fff"/></svg>