<svg version="1.1" id="Layer_1" xmlns="http://www.w3.org/2000/svg" xmlns:xlink="http://www.w3.org/1999/xlink" x="0px" y="0px"
	 width="100%" viewBox="0 0 572 257" enable-background="new 0 0 572 257" xml:space="preserve">
<path fill="#FDFDFD" opacity="1.000000" stroke="none" 
	d="
M436.000000,258.000000 
	C290.666687,258.000000 145.833374,258.000000 1.000039,258.000000 
	C1.000026,172.333359 1.000026,86.666725 1.000013,1.000062 
	C191.666626,1.000041 382.333252,1.000041 572.999878,1.000021 
	C572.999939,86.666603 572.999939,172.333206 573.000000,257.999908 
	C527.500000,258.000000 482.000000,258.000000 436.000000,258.000000 
M41.602222,203.898560 
	C60.039623,241.650513 102.783134,242.440979 131.454651,226.382706 
	C132.876740,225.586212 134.246933,223.267944 134.274185,221.635483 
	C134.499161,208.150574 134.418549,194.660263 134.389374,181.171661 
	C134.381561,177.558273 132.486862,175.522247 128.859924,175.500610 
	C119.035217,175.441986 109.209824,175.492691 99.384720,175.508743 
	C95.472977,175.515121 93.587746,177.614838 93.512489,181.402878 
	C93.443039,184.898560 93.488297,188.396606 93.490158,191.893600 
	C93.494431,199.950089 94.129448,200.563705 102.372566,200.719543 
	C103.486710,200.740585 104.596596,200.986832 105.597328,201.114609 
	C106.682831,204.361664 105.898293,206.605118 102.582664,206.558502 
	C96.683662,206.475571 90.389648,207.115936 84.980804,205.304306 
	C74.098442,201.659363 68.018288,193.124222 67.159912,181.650894 
	C66.275269,169.826385 71.122795,160.364746 81.541084,154.586838 
	C91.744774,148.927963 102.092499,149.483521 111.546623,156.624954 
	C115.514610,159.622299 118.620934,159.590881 121.924652,155.902618 
	C125.031502,152.434128 128.371780,149.175858 131.532272,145.753922 
	C134.871902,142.138031 134.856552,139.528091 131.063644,136.463959 
	C118.221085,126.088982 103.613182,120.618378 87.021645,122.690620 
	C47.913219,127.575195 26.092672,166.213669 41.602222,203.898560 
M520.508789,141.976227 
	C509.912659,130.586945 496.891937,124.224335 481.305939,123.831078 
	C468.831085,123.516335 456.341644,123.750542 443.858856,123.792244 
	C438.325958,123.810722 437.057343,125.044540 437.052277,130.519562 
	C437.022156,162.975082 437.019501,195.430649 437.038574,227.886200 
	C437.041870,233.498764 438.484680,234.948593 444.139160,234.978149 
	C455.290222,235.036469 466.443481,235.126389 477.592865,234.980133 
	C501.621613,234.664917 519.775513,224.130402 529.747864,202.171799 
	C539.433105,180.845276 535.948059,160.621964 520.508789,141.976227 
M310.366272,138.861771 
	C309.162720,140.242981 307.924347,141.595551 306.760773,143.009689 
	C290.160156,163.185242 289.293640,193.004822 304.699432,213.559174 
	C320.643982,234.832367 348.927795,242.343338 373.705017,231.884140 
	C397.681030,221.763138 411.732697,196.098114 407.007812,169.898361 
	C403.044891,147.923599 390.271362,132.568588 369.166748,125.356079 
	C347.434601,117.929108 327.815002,122.876953 310.366272,138.861771 
M177.821243,136.322952 
	C176.739914,137.360367 175.634323,138.373764 174.580856,139.438751 
	C151.441589,162.831024 153.141968,201.908264 178.217667,223.148590 
	C203.190765,244.302032 242.415802,239.699417 261.586823,213.366180 
	C278.452820,190.199097 275.382324,157.586884 254.463516,137.708282 
	C233.455566,117.744965 201.731720,116.974396 177.821243,136.322952 
M330.357971,59.220497 
	C328.681641,57.437595 327.005310,55.654694 325.191376,53.725433 
	C330.128662,49.349174 332.299866,44.026108 329.480225,37.741657 
	C326.621735,31.370577 320.901855,29.941259 314.521118,30.049761 
	C311.028137,30.109156 307.526917,30.197123 304.041321,30.027718 
	C300.916016,29.875828 299.443237,30.947231 299.464539,34.258881 
	C299.552216,47.900860 299.555145,61.543934 299.478241,75.185974 
	C299.462402,77.996033 300.559662,79.063858 303.318359,79.002052 
	C308.473328,78.886574 313.648041,79.205635 318.786316,78.887695 
	C329.272491,78.238831 334.531219,69.719933 330.357971,59.220497 
M435.885803,60.494503 
	C438.492767,70.663292 444.961578,77.105911 455.167419,79.155655 
	C465.050323,81.140541 473.730072,78.398254 480.089050,70.257225 
	C486.537140,62.002132 487.205322,52.835827 482.920624,43.467812 
	C477.852661,32.387466 464.940521,26.882496 453.120392,30.391731 
	C440.659119,34.091324 433.656403,45.869633 435.885803,60.494503 
M235.049438,72.163040 
	C235.049438,67.215088 235.049438,62.267128 235.049438,56.714756 
	C241.043335,56.714756 246.499451,56.876740 251.934067,56.606609 
	C253.384384,56.534523 254.768997,55.140316 256.183777,54.353096 
	C254.752304,53.399601 253.365509,51.714310 251.881332,51.623676 
	C246.456665,51.292397 240.999542,51.492607 235.327454,51.492607 
	C235.327454,45.773273 235.327454,40.709053 235.327454,35.238304 
	C242.456512,35.238304 249.272888,35.365582 256.075226,35.113976 
	C257.219177,35.071659 258.302551,33.391384 259.413910,32.467930 
	C258.394379,31.660347 257.391144,30.177542 256.352722,30.152473 
	C248.358170,29.959473 240.352173,29.919544 232.362930,30.203665 
	C231.278244,30.242237 229.374542,32.329700 229.357452,33.490650 
	C229.151596,47.486435 229.180649,61.486893 229.324860,75.484322 
	C229.336655,76.628998 230.610367,78.729179 231.344467,78.750168 
	C240.000290,78.997589 248.665894,78.987137 257.325775,78.847649 
	C258.020325,78.836472 258.691437,77.370132 259.373444,76.580009 
	C258.392914,75.735535 257.442474,74.205368 256.426880,74.160851 
	C250.937881,73.920181 245.431320,74.116898 239.934067,74.004013 
	C238.367264,73.971840 236.811386,73.408905 235.049438,72.163040 
M521.328308,58.684772 
	C522.159424,58.684849 523.060120,58.893787 523.808044,58.644363 
	C525.760803,57.993114 529.304688,57.092587 529.283691,56.377506 
	C529.168152,52.442417 525.718628,53.968220 523.550171,53.870262 
	C518.648865,53.648846 513.730652,53.800659 508.802002,53.800659 
	C508.802002,47.199718 508.802002,41.329174 508.802002,35.207951 
	C515.875183,35.207951 522.518921,35.330070 529.150452,35.100517 
	C530.412170,35.056835 531.625793,33.622040 532.861572,32.829098 
	C531.591736,31.912371 530.347351,30.246792 529.047791,30.202522 
	C521.575806,29.948000 514.089600,30.150537 506.610535,30.041033 
	C503.616943,29.997202 502.464539,31.182142 502.482178,34.169758 
	C502.561554,47.634632 502.427704,61.101608 502.637512,74.563675 
	C502.660461,76.036919 504.202454,78.520264 505.378479,78.742348 
	C508.543884,79.340172 508.398804,76.606827 508.399628,74.410683 
	C508.401489,69.325150 508.400208,64.239609 508.400208,58.680630 
	C512.799133,58.680630 516.587646,58.680630 521.328308,58.684772 
M383.238922,75.065613 
	C384.283173,76.364845 385.327393,77.664078 386.371643,78.963318 
	C387.245453,77.609406 388.840515,76.274124 388.876038,74.898567 
	C389.108063,65.914429 389.002869,56.921566 389.006561,47.931557 
	C389.008270,43.837765 389.006866,39.743969 389.006866,35.229092 
	C392.695770,35.229092 395.695312,35.479794 398.617279,35.112888 
	C399.889740,34.953110 401.002991,33.525726 402.188538,32.674023 
	C401.030396,31.801497 399.891815,30.204681 398.710938,30.172764 
	C390.392853,29.947922 382.062714,29.926918 373.745453,30.161036 
	C372.430908,30.198038 371.161835,31.851400 369.871704,32.757420 
	C371.244110,33.588978 372.547241,34.949535 374.003571,35.140221 
	C376.893738,35.518654 379.868378,35.252098 383.242554,35.252098 
	C383.242554,48.571514 383.242554,61.364067 383.238922,75.065613 
M117.982651,78.330063 
	C118.323578,76.431633 118.945938,74.535248 118.959732,72.634438 
	C119.048943,60.342632 119.005424,48.049862 119.005424,35.240601 
	C122.644936,35.240601 125.799828,35.448338 128.901505,35.132931 
	C130.056366,35.015488 131.086807,33.674526 132.173996,32.891491 
	C131.090073,31.945341 130.027527,30.208715 128.918808,30.178722 
	C120.429955,29.949076 111.929588,29.950752 103.439873,30.163179 
	C102.212959,30.193878 101.023781,31.732492 99.817146,32.573303 
	C100.973274,33.463985 102.055183,34.974064 103.300148,35.123234 
	C106.397301,35.494328 109.568748,35.245350 113.242867,35.245350 
	C113.242867,37.391758 113.242973,39.191399 113.242851,40.991043 
	C113.242096,52.151562 113.270126,63.312214 113.220451,74.472511 
	C113.207878,77.297256 113.449432,79.654343 117.982651,78.330063 
M155.038376,40.539490 
	C155.038376,52.018978 154.954681,63.499889 155.150314,74.976051 
	C155.173294,76.324608 156.732864,77.646965 157.580124,78.981461 
	C158.631500,77.640442 160.455399,76.372002 160.589493,74.944801 
	C160.992355,70.656967 160.736771,66.307198 160.736984,61.981598 
	C160.737411,53.211304 160.737122,44.441010 160.737122,35.254028 
	C164.325516,35.254028 167.325378,35.497971 170.252365,35.142200 
	C171.547470,34.984776 172.694962,33.612896 173.909454,32.792332 
	C172.799088,31.875628 171.708908,30.194088 170.575134,30.164162 
	C162.096252,29.940346 153.606201,29.942205 145.126877,30.157976 
	C143.929504,30.188444 142.771378,31.761250 141.595093,32.620174 
	C142.756439,33.497723 143.845642,34.984886 145.093353,35.132526 
	C148.187485,35.498646 151.354034,35.252823 154.745132,35.252823 
	C154.865555,36.950672 154.957581,38.248058 155.038376,40.539490 
M62.889355,74.105942 
	C56.824135,74.105942 50.758915,74.105942 44.383175,74.105942 
	C44.383175,71.421280 44.382931,69.608383 44.383213,67.795479 
	C44.384972,56.481892 44.471756,45.166794 44.270226,33.856831 
	C44.247635,32.589058 42.591660,31.350384 41.693153,30.098215 
	C40.735497,31.187233 38.958736,32.265545 38.944340,33.366890 
	C38.759502,47.506386 38.764324,61.650002 38.953854,75.789459 
	C38.968178,76.857941 40.717091,78.779526 41.716301,78.817558 
	C48.693573,79.083206 55.687675,79.036613 62.671143,78.870056 
	C63.722149,78.844986 64.745796,77.672989 65.782104,77.031540 
	C65.108406,76.078735 64.434715,75.125938 62.889355,74.105942 
M188.229645,51.500107 
	C188.232880,59.164608 188.392227,66.833626 188.170609,74.491615 
	C188.066666,78.083679 189.451141,79.153969 192.838150,79.056343 
	C198.830994,78.883621 204.840988,79.192619 210.824982,78.906311 
	C212.318848,78.834839 213.740875,77.262009 215.195908,76.379219 
	C213.774307,75.598450 212.382446,74.216225 210.925797,74.144196 
	C205.494354,73.875626 200.041656,74.036926 194.022598,74.036926 
	C194.022598,71.652390 194.022339,69.870590 194.022629,68.088799 
	C194.024551,56.758713 194.133652,45.426308 193.888580,34.101566 
	C193.859055,32.736546 191.912796,31.413008 190.854889,30.070244 
	C189.982132,31.381954 188.427795,32.657600 188.356125,34.011703 
	C188.065979,39.494759 188.231995,45.001949 188.229645,51.500107 
M355.735870,58.499336 
	C355.733826,50.523460 355.895752,42.541248 355.587830,34.577194 
	C355.528107,33.032135 353.636261,31.557909 352.589508,30.051010 
	C351.645905,31.494963 349.905548,32.926533 349.882904,34.384804 
	C349.673798,47.840801 349.677673,61.302727 349.887238,74.758751 
	C349.909271,76.173958 351.471130,78.559380 352.632263,78.770630 
	C355.740906,79.336227 355.731384,76.697952 355.727539,74.453445 
	C355.718994,69.468597 355.731750,64.483704 355.735870,58.499336 
M79.780388,63.489376 
	C79.781883,67.308975 79.514267,71.157631 79.921936,74.933380 
	C80.077408,76.373322 81.781219,77.646080 82.779396,78.995033 
	C83.758568,77.582520 85.565010,76.183472 85.588242,74.755417 
	C85.807076,61.307434 85.806801,47.853191 85.600914,34.404873 
	C85.578644,32.950607 83.856148,31.522367 82.922318,30.082054 
	C81.878983,31.585680 79.979729,33.062992 79.932564,34.597240 
	C79.646896,43.888466 79.784157,53.192696 79.780388,63.489376 
z"/>
<path fill="#251A13" opacity="1.000000" stroke="none" 
	d="
M41.434593,203.559631 
	C26.092672,166.213669 47.913219,127.575195 87.021645,122.690620 
	C103.613182,120.618378 118.221085,126.088982 131.063644,136.463959 
	C134.856552,139.528091 134.871902,142.138031 131.532272,145.753922 
	C128.371780,149.175858 125.031502,152.434128 121.924652,155.902618 
	C118.620934,159.590881 115.514610,159.622299 111.546623,156.624954 
	C102.092499,149.483521 91.744774,148.927963 81.541084,154.586838 
	C71.122795,160.364746 66.275269,169.826385 67.159912,181.650894 
	C68.018288,193.124222 74.098442,201.659363 84.980804,205.304306 
	C90.389648,207.115936 96.683662,206.475571 102.582664,206.558502 
	C105.898293,206.605118 106.682831,204.361664 105.597328,201.114609 
	C104.596596,200.986832 103.486710,200.740585 102.372566,200.719543 
	C94.129448,200.563705 93.494431,199.950089 93.490158,191.893600 
	C93.488297,188.396606 93.443039,184.898560 93.512489,181.402878 
	C93.587746,177.614838 95.472977,175.515121 99.384720,175.508743 
	C109.209824,175.492691 119.035217,175.441986 128.859924,175.500610 
	C132.486862,175.522247 134.381561,177.558273 134.389374,181.171661 
	C134.418549,194.660263 134.499161,208.150574 134.274185,221.635483 
	C134.246933,223.267944 132.876740,225.586212 131.454651,226.382706 
	C102.783134,242.440979 60.039623,241.650513 41.434593,203.559631 
M40.891457,176.739365 
	C40.334236,193.136841 45.735191,207.125717 57.926678,218.255447 
	C78.075981,236.649933 106.399414,234.239517 127.488876,223.275589 
	C128.746094,222.621994 129.958618,220.511169 129.977234,219.062820 
	C130.129120,207.242645 129.940918,195.418594 129.979477,183.596130 
	C129.988739,180.757690 128.819885,179.777924 126.087891,179.832718 
	C120.428169,179.946259 114.764679,179.875549 109.102737,179.874115 
	C97.939186,179.871292 98.120178,179.872177 97.954735,190.920349 
	C97.892769,195.057755 99.120476,196.459717 103.295685,196.297928 
	C112.240089,195.951309 110.470833,195.965988 110.671364,203.770111 
	C110.737640,206.349457 111.313721,209.057007 107.555878,210.095444 
	C94.884781,213.596924 83.027908,212.758759 73.000275,203.448303 
	C63.383995,194.519806 60.309509,183.354645 63.599754,170.685287 
	C69.282425,148.803696 94.597557,139.520950 113.505356,152.147827 
	C114.740967,152.972977 117.411369,153.601624 118.120117,152.938461 
	C121.948395,149.356400 125.368263,145.337860 129.221451,141.152054 
	C119.113396,132.061035 107.732910,127.385368 94.893288,126.947784 
	C66.855392,125.992256 44.258850,146.654129 40.891457,176.739365 
z"/>
<path fill="#251A14" opacity="1.000000" stroke="none" 
	d="
M520.759338,142.230270 
	C535.948059,160.621964 539.433105,180.845276 529.747864,202.171799 
	C519.775513,224.130402 501.621613,234.664917 477.592865,234.980133 
	C466.443481,235.126389 455.290222,235.036469 444.139160,234.978149 
	C438.484680,234.948593 437.041870,233.498764 437.038574,227.886200 
	C437.019501,195.430649 437.022156,162.975082 437.052277,130.519562 
	C437.057343,125.044540 438.325958,123.810722 443.858856,123.792244 
	C456.341644,123.750542 468.831085,123.516335 481.305939,123.831078 
	C496.891937,124.224335 509.912659,130.586945 520.759338,142.230270 
M491.357391,129.769684 
	C488.900116,129.365768 486.449615,128.663940 483.984467,128.608215 
	C471.678894,128.330017 459.364014,128.383179 447.064301,127.968002 
	C442.585602,127.816826 441.421509,129.387207 441.444427,133.701523 
	C441.605499,163.997543 441.526520,194.294830 441.546082,224.591690 
	C441.547211,226.337128 441.739014,228.082413 441.863678,230.194031 
	C455.377136,230.194031 468.346893,230.521667 481.293610,230.115143 
	C499.472565,229.544296 513.615051,221.090286 522.814941,205.611649 
	C540.582153,175.718643 526.087585,140.467621 491.357391,129.769684 
z"/>
<path fill="#281D17" opacity="1.000000" stroke="none" 
	d="
M310.621948,138.621307 
	C327.815002,122.876953 347.434601,117.929108 369.166748,125.356079 
	C390.271362,132.568588 403.044891,147.923599 407.007812,169.898361 
	C411.732697,196.098114 397.681030,221.763138 373.705017,231.884140 
	C348.927795,242.343338 320.643982,234.832367 304.699432,213.559174 
	C289.293640,193.004822 290.160156,163.185242 306.760773,143.009689 
	C307.924347,141.595551 309.162720,140.242981 310.621948,138.621307 
M387.257996,217.365723 
	C389.937469,213.997787 392.616943,210.629852 395.808258,206.799271 
	C408.993011,184.740570 404.271729,155.114212 384.788361,139.291473 
	C378.229156,133.643829 370.687103,129.986298 362.300385,127.894669 
	C343.704895,123.256989 319.962708,131.639420 309.737640,146.694427 
	C307.274658,150.791916 304.367859,154.690216 302.424133,159.020767 
	C293.130981,179.725662 299.569000,206.447922 317.016235,219.869232 
	C318.232788,220.707275 319.449341,221.545319 321.056793,222.943024 
	C325.364716,225.063705 329.479736,227.820908 334.013916,229.194855 
	C353.618164,235.135254 371.424133,231.981934 387.257996,217.365723 
z"/>
<path fill="#241A14" opacity="1.000000" stroke="none" 
	d="
M178.089966,136.091324 
	C201.731720,116.974396 233.455566,117.744965 254.463516,137.708282 
	C275.382324,157.586884 278.452820,190.199097 261.586823,213.366180 
	C242.415802,239.699417 203.190765,244.302032 178.217667,223.148590 
	C153.141968,201.908264 151.441589,162.831024 174.580856,139.438751 
	C175.634323,138.373764 176.739914,137.360367 178.089966,136.091324 
M172.292084,149.250717 
	C162.035889,164.671692 159.723938,181.035904 166.543488,199.198547 
	C175.016739,222.058090 199.078812,235.465561 225.025040,231.030975 
	C244.038300,227.781326 257.523376,216.691956 264.358734,198.692780 
	C271.194702,180.692093 269.063171,163.444336 256.908508,147.219040 
	C236.692688,121.780716 198.970444,119.449562 177.799362,142.626877 
	C176.148178,144.702667 174.496979,146.778458 172.292084,149.250717 
z"/>
<path fill="#161616" opacity="1.000000" stroke="none" 
	d="
M330.563660,59.533466 
	C334.531219,69.719933 329.272491,78.238831 318.786316,78.887695 
	C313.648041,79.205635 308.473328,78.886574 303.318359,79.002052 
	C300.559662,79.063858 299.462402,77.996033 299.478241,75.185974 
	C299.555145,61.543934 299.552216,47.900860 299.464539,34.258881 
	C299.443237,30.947231 300.916016,29.875828 304.041321,30.027718 
	C307.526917,30.197123 311.028137,30.109156 314.521118,30.049761 
	C320.901855,29.941259 326.621735,31.370577 329.480225,37.741657 
	C332.299866,44.026108 330.128662,49.349174 325.191376,53.725433 
	C327.005310,55.654694 328.681641,57.437595 330.563660,59.533466 
M305.164948,73.152885 
	C310.166260,73.280739 315.228424,73.935303 320.149353,73.367073 
	C323.974152,72.925415 325.843384,69.514801 325.919586,65.690865 
	C326.003204,61.495323 323.515625,58.481262 319.701691,57.763332 
	C314.981232,56.874756 310.051971,57.095543 304.964630,56.823795 
	C304.964630,62.642513 304.964630,67.431786 305.164948,73.152885 
M305.384705,36.050018 
	C305.384705,41.147419 305.384705,46.244820 305.384705,51.840378 
	C309.374359,51.840378 313.006989,52.004555 316.618683,51.799877 
	C321.407837,51.528469 324.194214,48.447311 324.319550,43.689991 
	C324.446136,38.886765 321.855621,35.679070 316.991913,35.302700 
	C313.362396,35.021828 309.686462,35.341145 305.384705,36.050018 
z"/>
<path fill="#191919" opacity="1.000000" stroke="none" 
	d="
M435.799683,60.081905 
	C433.656403,45.869633 440.659119,34.091324 453.120392,30.391731 
	C464.940521,26.882496 477.852661,32.387466 482.920624,43.467812 
	C487.205322,52.835827 486.537140,62.002132 480.089050,70.257225 
	C473.730072,78.398254 465.050323,81.140541 455.167419,79.155655 
	C444.961578,77.105911 438.492767,70.663292 435.799683,60.081905 
M449.010223,38.295017 
	C440.819031,45.382504 438.422272,53.577530 442.028137,62.168522 
	C445.286285,69.931267 453.149597,74.928177 461.348724,74.446236 
	C469.605255,73.960930 476.674042,68.541756 479.177856,60.777756 
	C481.665894,53.062691 479.355499,44.796547 473.243988,39.547581 
	C466.539062,33.788975 458.456848,33.220387 449.010223,38.295017 
z"/>
<path fill="#1D1D1D" opacity="1.000000" stroke="none" 
	d="
M235.149963,72.626205 
	C236.811386,73.408905 238.367264,73.971840 239.934067,74.004013 
	C245.431320,74.116898 250.937881,73.920181 256.426880,74.160851 
	C257.442474,74.205368 258.392914,75.735535 259.373444,76.580009 
	C258.691437,77.370132 258.020325,78.836472 257.325775,78.847649 
	C248.665894,78.987137 240.000290,78.997589 231.344467,78.750168 
	C230.610367,78.729179 229.336655,76.628998 229.324860,75.484322 
	C229.180649,61.486893 229.151596,47.486435 229.357452,33.490650 
	C229.374542,32.329700 231.278244,30.242237 232.362930,30.203665 
	C240.352173,29.919544 248.358170,29.959473 256.352722,30.152473 
	C257.391144,30.177542 258.394379,31.660347 259.413910,32.467930 
	C258.302551,33.391384 257.219177,35.071659 256.075226,35.113976 
	C249.272888,35.365582 242.456512,35.238304 235.327454,35.238304 
	C235.327454,40.709053 235.327454,45.773273 235.327454,51.492607 
	C240.999542,51.492607 246.456665,51.292397 251.881332,51.623676 
	C253.365509,51.714310 254.752304,53.399601 256.183777,54.353096 
	C254.768997,55.140316 253.384384,56.534523 251.934067,56.606609 
	C246.499451,56.876740 241.043335,56.714756 235.049438,56.714756 
	C235.049438,62.267128 235.049438,67.215088 235.149963,72.626205 
z"/>
<path fill="#141414" opacity="1.000000" stroke="none" 
	d="
M520.852295,58.682701 
	C516.587646,58.680630 512.799133,58.680630 508.400208,58.680630 
	C508.400208,64.239609 508.401489,69.325150 508.399628,74.410683 
	C508.398804,76.606827 508.543884,79.340172 505.378479,78.742348 
	C504.202454,78.520264 502.660461,76.036919 502.637512,74.563675 
	C502.427704,61.101608 502.561554,47.634632 502.482178,34.169758 
	C502.464539,31.182142 503.616943,29.997202 506.610535,30.041033 
	C514.089600,30.150537 521.575806,29.948000 529.047791,30.202522 
	C530.347351,30.246792 531.591736,31.912371 532.861572,32.829094 
	C531.625793,33.622040 530.412170,35.056835 529.150452,35.100517 
	C522.518921,35.330070 515.875183,35.207951 508.802002,35.207951 
	C508.802002,41.329174 508.802002,47.199718 508.802002,53.800659 
	C513.730652,53.800659 518.648865,53.648846 523.550171,53.870262 
	C525.718628,53.968220 529.168152,52.442417 529.283691,56.377506 
	C529.304688,57.092587 525.760803,57.993114 523.808044,58.644363 
	C523.060120,58.893787 522.159424,58.684849 520.852295,58.682701 
z"/>
<path fill="#1D1D1D" opacity="1.000000" stroke="none" 
	d="
M383.240723,74.611115 
	C383.242554,61.364067 383.242554,48.571514 383.242554,35.252098 
	C379.868378,35.252098 376.893738,35.518654 374.003571,35.140221 
	C372.547241,34.949535 371.244110,33.588978 369.871704,32.757427 
	C371.161835,31.851400 372.430908,30.198038 373.745453,30.161036 
	C382.062714,29.926918 390.392853,29.947922 398.710938,30.172764 
	C399.891815,30.204681 401.030396,31.801497 402.188538,32.674030 
	C401.002991,33.525726 399.889740,34.953110 398.617279,35.112888 
	C395.695312,35.479794 392.695770,35.229092 389.006866,35.229092 
	C389.006866,39.743969 389.008270,43.837765 389.006561,47.931557 
	C389.002869,56.921566 389.108063,65.914429 388.876038,74.898567 
	C388.840515,76.274124 387.245453,77.609406 386.371643,78.963318 
	C385.327393,77.664078 384.283173,76.364845 383.240723,74.611115 
z"/>
<path fill="#1D1D1D" opacity="1.000000" stroke="none" 
	d="
M117.622177,78.564423 
	C113.449432,79.654343 113.207878,77.297256 113.220451,74.472511 
	C113.270126,63.312214 113.242096,52.151562 113.242851,40.991043 
	C113.242973,39.191399 113.242867,37.391758 113.242867,35.245350 
	C109.568748,35.245350 106.397301,35.494328 103.300148,35.123234 
	C102.055183,34.974064 100.973274,33.463985 99.817146,32.573303 
	C101.023781,31.732492 102.212959,30.193878 103.439873,30.163179 
	C111.929588,29.950752 120.429955,29.949076 128.918808,30.178722 
	C130.027527,30.208715 131.090073,31.945341 132.173996,32.891491 
	C131.086807,33.674526 130.056366,35.015488 128.901505,35.132931 
	C125.799828,35.448338 122.644936,35.240601 119.005424,35.240601 
	C119.005424,48.049862 119.048943,60.342632 118.959732,72.634438 
	C118.945938,74.535248 118.323578,76.431633 117.622177,78.564423 
z"/>
<path fill="#1E1E1E" opacity="1.000000" stroke="none" 
	d="
M155.043991,40.042469 
	C154.957581,38.248058 154.865555,36.950672 154.745132,35.252823 
	C151.354034,35.252823 148.187485,35.498646 145.093353,35.132526 
	C143.845642,34.984886 142.756439,33.497723 141.595093,32.620174 
	C142.771378,31.761250 143.929504,30.188444 145.126877,30.157976 
	C153.606201,29.942205 162.096252,29.940346 170.575134,30.164162 
	C171.708908,30.194088 172.799088,31.875628 173.909454,32.792328 
	C172.694962,33.612896 171.547470,34.984776 170.252365,35.142200 
	C167.325378,35.497971 164.325516,35.254028 160.737122,35.254028 
	C160.737122,44.441010 160.737411,53.211304 160.736984,61.981598 
	C160.736771,66.307198 160.992355,70.656967 160.589493,74.944801 
	C160.455399,76.372002 158.631500,77.640442 157.580109,78.981461 
	C156.732864,77.646965 155.173294,76.324608 155.150314,74.976051 
	C154.954681,63.499889 155.038376,52.018978 155.043991,40.042469 
z"/>
<path fill="#141414" opacity="1.000000" stroke="none" 
	d="
M63.325188,74.139542 
	C64.434715,75.125938 65.108406,76.078735 65.782104,77.031540 
	C64.745796,77.672989 63.722149,78.844986 62.671143,78.870056 
	C55.687675,79.036613 48.693573,79.083206 41.716301,78.817558 
	C40.717091,78.779526 38.968178,76.857941 38.953854,75.789459 
	C38.764324,61.650002 38.759502,47.506386 38.944340,33.366890 
	C38.958736,32.265545 40.735497,31.187233 41.693153,30.098215 
	C42.591660,31.350384 44.247635,32.589058 44.270226,33.856831 
	C44.471756,45.166794 44.384972,56.481892 44.383213,67.795479 
	C44.382931,69.608383 44.383175,71.421280 44.383175,74.105942 
	C50.758915,74.105942 56.824135,74.105942 63.325188,74.139542 
z"/>
<path fill="#202020" opacity="1.000000" stroke="none" 
	d="
M188.229675,51.000172 
	C188.231995,45.001949 188.065979,39.494759 188.356125,34.011703 
	C188.427795,32.657600 189.982132,31.381954 190.854889,30.070244 
	C191.912796,31.413008 193.859055,32.736546 193.888580,34.101566 
	C194.133652,45.426308 194.024551,56.758713 194.022629,68.088799 
	C194.022339,69.870590 194.022598,71.652390 194.022598,74.036926 
	C200.041656,74.036926 205.494354,73.875626 210.925797,74.144196 
	C212.382446,74.216225 213.774307,75.598450 215.195908,76.379227 
	C213.740875,77.262009 212.318848,78.834839 210.824982,78.906311 
	C204.840988,79.192619 198.830994,78.883621 192.838150,79.056343 
	C189.451141,79.153969 188.066666,78.083679 188.170609,74.491615 
	C188.392227,66.833626 188.232880,59.164608 188.229675,51.000172 
z"/>
<path fill="#1E1E1E" opacity="1.000000" stroke="none" 
	d="
M355.735840,58.999084 
	C355.731750,64.483704 355.718994,69.468597 355.727539,74.453445 
	C355.731384,76.697952 355.740906,79.336227 352.632263,78.770630 
	C351.471130,78.559380 349.909271,76.173958 349.887238,74.758751 
	C349.677673,61.302727 349.673798,47.840801 349.882904,34.384804 
	C349.905548,32.926533 351.645905,31.494963 352.589508,30.051010 
	C353.636261,31.557909 355.528107,33.032135 355.587830,34.577194 
	C355.895752,42.541248 355.733826,50.523460 355.735840,58.999084 
z"/>
<path fill="#1E1E1E" opacity="1.000000" stroke="none" 
	d="
M79.780228,62.990974 
	C79.784157,53.192696 79.646896,43.888466 79.932564,34.597240 
	C79.979729,33.062992 81.878983,31.585680 82.922318,30.082054 
	C83.856148,31.522367 85.578644,32.950607 85.600914,34.404873 
	C85.806801,47.853191 85.807076,61.307434 85.588242,74.755417 
	C85.565010,76.183472 83.758568,77.582520 82.779396,78.995033 
	C81.781219,77.646080 80.077408,76.373322 79.921936,74.933380 
	C79.514267,71.157631 79.781883,67.308975 79.780228,62.990974 
z"/>
<path fill="#F1AD49" opacity="1.000000" stroke="none" 
	d="
M40.900719,176.278870 
	C44.258850,146.654129 66.855392,125.992256 94.893288,126.947784 
	C107.732910,127.385368 119.113396,132.061035 129.221451,141.152054 
	C125.368263,145.337860 121.948395,149.356400 118.120117,152.938461 
	C117.411369,153.601624 114.740967,152.972977 113.505356,152.147827 
	C94.597557,139.520950 69.282425,148.803696 63.599754,170.685287 
	C60.309509,183.354645 63.383995,194.519806 73.000275,203.448303 
	C83.027908,212.758759 94.884781,213.596924 107.555878,210.095444 
	C111.313721,209.057007 110.737640,206.349457 110.671364,203.770111 
	C110.470833,195.965988 112.240089,195.951309 103.295685,196.297928 
	C99.120476,196.459717 97.892769,195.057755 97.954735,190.920349 
	C98.120178,179.872177 97.939186,179.871292 109.102737,179.874115 
	C114.764679,179.875549 120.428169,179.946259 126.087891,179.832718 
	C128.819885,179.777924 129.988739,180.757690 129.979477,183.596130 
	C129.940918,195.418594 130.129120,207.242645 129.977234,219.062820 
	C129.958618,220.511169 128.746094,222.621994 127.488876,223.275589 
	C106.399414,234.239517 78.075981,236.649933 57.926678,218.255447 
	C45.735191,207.125717 40.334236,193.136841 40.900719,176.278870 
z"/>
<path fill="#F4AE46" opacity="1.000000" stroke="none" 
	d="
M491.764587,129.856049 
	C526.087585,140.467621 540.582153,175.718643 522.814941,205.611649 
	C513.615051,221.090286 499.472565,229.544296 481.293610,230.115143 
	C468.346893,230.521667 455.377136,230.194031 441.863678,230.194031 
	C441.739014,228.082413 441.547211,226.337128 441.546082,224.591690 
	C441.526520,194.294830 441.605499,163.997543 441.444427,133.701523 
	C441.421509,129.387207 442.585602,127.816826 447.064301,127.968002 
	C459.364014,128.383179 471.678894,128.330017 483.984467,128.608215 
	C486.449615,128.663940 488.900116,129.365768 491.764587,129.856049 
M459.345459,148.611359 
	C459.245575,168.181610 459.138245,187.751846 459.082367,207.322220 
	C459.080719,207.899826 459.620331,208.478989 459.973083,209.605301 
	C460.236786,210.065170 460.500519,210.525040 461.071747,211.572998 
	C461.373474,211.895828 461.675232,212.218658 462.293091,213.219391 
	C472.783905,213.682770 483.255219,216.249252 493.462708,210.469666 
	C498.865784,207.410355 503.507629,203.798935 506.438202,198.702286 
	C512.733276,187.754196 512.603333,175.988434 508.434540,164.351501 
	C507.560333,161.911255 504.780334,160.153763 502.987854,158.006195 
	C502.987854,158.006195 502.907562,158.111893 502.980286,157.362808 
	C501.177643,154.931992 499.834473,151.860977 497.493225,150.180634 
	C487.088989,142.713501 474.924652,144.057068 463.090424,144.181122 
	C462.371063,144.188660 461.669403,145.888245 460.916595,147.391876 
	C460.848267,147.577347 460.779968,147.762802 460.303497,147.942886 
	C460.303497,147.942886 459.897491,147.986954 459.345459,148.611359 
z"/>
<path fill="#D5A45C" opacity="1.000000" stroke="none" 
	d="
M310.287079,146.359558 
	C319.962708,131.639420 343.704895,123.256989 362.300385,127.894669 
	C370.687103,129.986298 378.229156,133.643829 384.880188,139.661346 
	C384.972015,140.031219 384.803284,140.199005 384.437927,140.137909 
	C382.799835,139.748978 381.186157,139.806366 380.309723,139.030716 
	C374.690918,134.058212 368.125031,131.775131 360.826813,130.156174 
	C348.391357,127.397606 336.893005,129.112411 326.197479,135.481628 
	C320.773468,138.711639 316.065582,143.144272 310.858185,146.852661 
	C310.550629,146.567917 310.418854,146.463730 310.287079,146.359558 
z"/>
<path fill="#D5A45C" opacity="1.000000" stroke="none" 
	d="
M316.695404,219.312790 
	C299.569000,206.447922 293.130981,179.725662 302.424133,159.020767 
	C304.367859,154.690216 307.274658,150.791916 310.012360,146.526993 
	C310.418854,146.463730 310.550629,146.567917 310.805908,147.206909 
	C307.055084,155.281357 302.544403,162.386475 301.231964,171.186752 
	C299.619293,182.000107 300.014648,192.126404 306.010284,201.557541 
	C309.689697,207.345215 313.415863,213.103165 317.014771,218.984207 
	C316.908539,219.093948 316.695404,219.312790 316.695404,219.312790 
z"/>
<path fill="#D5A45C" opacity="1.000000" stroke="none" 
	d="
M385.056732,139.947662 
	C404.271729,155.114212 408.993011,184.740570 395.437592,206.928421 
	C395.066925,207.057571 394.839600,206.850861 394.888092,206.453339 
	C395.915955,203.357712 397.038696,200.701874 397.849457,197.953995 
	C401.084534,186.989105 403.021240,176.127747 398.966797,164.715088 
	C396.363861,157.388092 392.868958,150.904251 387.750366,145.146301 
	C386.497864,143.737335 385.771545,141.860641 384.803284,140.199005 
	C384.803284,140.199005 384.972015,140.031219 385.056732,139.947662 
z"/>
<path fill="#D5A45C" opacity="1.000000" stroke="none" 
	d="
M386.682526,217.654053 
	C371.424133,231.981934 353.618164,235.135254 334.013916,229.194855 
	C329.479736,227.820908 325.364716,225.063705 320.964661,222.544952 
	C320.872528,222.146881 321.082825,221.913635 321.462280,221.950684 
	C322.487305,222.131912 323.175568,222.177597 323.771790,222.435806 
	C328.715729,224.577011 333.452881,227.642029 338.612732,228.748734 
	C350.722595,231.346146 362.662567,230.538162 373.679047,223.928848 
	C377.716461,221.506592 381.879272,219.293381 386.150269,217.161545 
	C386.315643,217.338272 386.682526,217.654053 386.682526,217.654053 
z"/>
<path fill="#D5A45C" opacity="1.000000" stroke="none" 
	d="
M395.181641,207.159744 
	C392.616943,210.629852 389.937469,213.997787 386.970276,217.509888 
	C386.682526,217.654053 386.315643,217.338272 386.196411,216.816437 
	C388.997955,213.146698 391.918762,209.998779 394.839600,206.850861 
	C394.839600,206.850861 395.066925,207.057571 395.181641,207.159744 
z"/>
<path fill="#D5A45C" opacity="1.000000" stroke="none" 
	d="
M320.769226,222.265137 
	C319.449341,221.545319 318.232788,220.707275 316.855835,219.591003 
	C316.695404,219.312790 316.908539,219.093948 317.360962,219.029541 
	C318.903168,219.947968 319.993011,220.930801 321.082825,221.913635 
	C321.082825,221.913635 320.872528,222.146881 320.769226,222.265137 
z"/>
<path fill="#CE9F5C" opacity="1.000000" stroke="none" 
	d="
M257.150940,147.842438 
	C269.063171,163.444336 271.194702,180.692093 264.358734,198.692780 
	C257.523376,216.691956 244.038300,227.781326 225.025040,231.030975 
	C199.078812,235.465561 175.016739,222.058090 166.648346,198.714844 
	C166.753204,198.231155 167.041992,197.969681 167.334930,198.147491 
	C168.416870,199.571640 169.393906,200.737885 169.964401,202.077301 
	C173.670639,210.778656 180.264771,217.136551 187.877441,222.052460 
	C192.958252,225.333389 199.229187,226.771271 205.148788,229.272949 
	C205.897781,229.661240 206.465515,229.810547 207.484528,229.975861 
	C210.951584,230.000412 213.967346,230.008957 217.321320,230.023224 
	C218.110474,230.025848 218.561432,230.022736 219.426605,230.021759 
	C227.770401,227.302673 236.564804,225.929779 243.419754,221.533081 
	C252.869492,215.472137 260.011261,206.814453 263.349487,195.202194 
	C266.286621,184.985275 266.931091,175.149048 263.576599,165.174438 
	C261.638458,159.411392 259.068787,153.860733 256.875427,148.121613 
	C256.967468,148.028763 257.150940,147.842438 257.150940,147.842438 
z"/>
<path fill="#CE9F5C" opacity="1.000000" stroke="none" 
	d="
M178.394867,142.367065 
	C198.970444,119.449562 236.692688,121.780716 257.029724,147.530731 
	C257.150940,147.842438 256.967468,148.028763 256.537811,148.041382 
	C255.217209,147.396744 254.227280,146.839020 253.450790,146.066711 
	C246.246811,138.901489 238.357605,133.113312 228.215454,130.438583 
	C211.120148,125.930115 196.388519,130.626617 182.735214,140.731979 
	C181.570755,141.593842 180.267273,142.267838 178.875732,142.858093 
	C178.723099,142.687103 178.394867,142.367065 178.394867,142.367065 
z"/>
<path fill="#CE9F5C" opacity="1.000000" stroke="none" 
	d="
M166.600494,198.352051 
	C159.723938,181.035904 162.035889,164.671692 172.662613,149.141449 
	C173.033142,149.032166 173.220154,149.210464 173.143311,149.568954 
	C171.031738,154.939667 168.997009,159.951874 166.723831,165.146790 
	C166.327423,165.896301 166.169479,166.463104 166.000549,167.353973 
	C165.982849,168.110336 165.976135,168.542648 165.702972,169.216705 
	C165.291946,170.646988 165.147369,171.835480 164.995575,173.417526 
	C164.986557,174.860687 164.984741,175.910309 164.707077,177.237823 
	C164.613174,180.025497 164.795120,182.535309 164.975723,185.455048 
	C165.663574,189.899872 166.352783,193.934784 167.041992,197.969681 
	C167.041992,197.969681 166.753204,198.231155 166.600494,198.352051 
z"/>
<path fill="#CE9F5C" opacity="1.000000" stroke="none" 
	d="
M172.939468,148.943207 
	C174.496979,146.778458 176.148178,144.702667 178.097107,142.496979 
	C178.394867,142.367065 178.723099,142.687103 178.813446,143.187302 
	C177.009232,145.528488 175.114685,147.369476 173.220154,149.210464 
	C173.220154,149.210464 173.033142,149.032166 172.939468,148.943207 
z"/>
<path fill="#F3F3F3" opacity="1.000000" stroke="none" 
	d="
M305.064789,72.686966 
	C304.964630,67.431786 304.964630,62.642513 304.964630,56.823795 
	C310.051971,57.095543 314.981232,56.874756 319.701691,57.763332 
	C323.515625,58.481262 326.003204,61.495323 325.919586,65.690865 
	C325.843384,69.514801 323.974152,72.925415 320.149353,73.367073 
	C315.228424,73.935303 310.166260,73.280739 305.064789,72.686966 
z"/>
<path fill="#F0F0F0" opacity="1.000000" stroke="none" 
	d="
M305.707947,35.721603 
	C309.686462,35.341145 313.362396,35.021828 316.991913,35.302700 
	C321.855621,35.679070 324.446136,38.886765 324.319550,43.689991 
	C324.194214,48.447311 321.407837,51.528469 316.618683,51.799877 
	C313.006989,52.004555 309.374359,51.840378 305.384705,51.840378 
	C305.384705,46.244820 305.384705,41.147419 305.707947,35.721603 
z"/>
<path fill="#F8F8F8" opacity="1.000000" stroke="none" 
	d="
M449.323853,38.090946 
	C458.456848,33.220387 466.539062,33.788975 473.243988,39.547581 
	C479.355499,44.796547 481.665894,53.062691 479.177856,60.777756 
	C476.674042,68.541756 469.605255,73.960930 461.348724,74.446236 
	C453.149597,74.928177 445.286285,69.931267 442.028137,62.168522 
	C438.422272,53.577530 440.819031,45.382504 449.323853,38.090946 
z"/>
<path fill="#241912" opacity="1.000000" stroke="none" 
	d="
M461.976990,212.541473 
	C461.675232,212.218658 461.373474,211.895828 461.032166,210.864334 
	C460.902283,208.451065 460.811951,206.746475 460.799011,204.576645 
	C460.829132,187.735046 460.781860,171.358673 460.847107,154.661972 
	C460.882660,153.902542 460.805695,153.463440 460.802429,152.625519 
	C460.826843,151.150040 460.777588,150.073380 460.813843,148.733185 
	C460.836792,148.295853 460.774231,148.122055 460.711639,147.948273 
	C460.779968,147.762802 460.848267,147.577347 461.329803,146.964325 
	C476.884125,145.346695 491.775269,145.045456 502.907562,158.111893 
	C502.907562,158.111893 502.987854,158.006195 502.998810,158.390869 
	C504.009949,160.492432 505.127228,162.152466 505.992310,163.934937 
	C515.353149,183.222931 505.537079,212.530838 475.889557,212.314560 
	C471.252838,212.280716 466.614563,212.460480 461.976990,212.541473 
M494.421265,202.023010 
	C505.149048,192.595245 508.208649,177.669937 501.685089,165.330811 
	C494.986450,152.660583 483.143036,148.594788 465.620667,151.452255 
	C465.620667,170.147842 465.620667,188.836853 465.620667,207.652359 
	C475.696838,207.910416 485.442322,208.892609 494.421265,202.023010 
z"/>
<path fill="#D19F56" opacity="1.000000" stroke="none" 
	d="
M462.135040,212.880432 
	C466.614563,212.460480 471.252838,212.280716 475.889557,212.314560 
	C505.537079,212.530838 515.353149,183.222931 505.992310,163.934937 
	C505.127228,162.152466 504.009949,160.492432 502.944183,158.428589 
	C504.780334,160.153763 507.560333,161.911255 508.434540,164.351501 
	C512.603333,175.988434 512.733276,187.754196 506.438202,198.702286 
	C503.507629,203.798935 498.865784,207.410355 493.462708,210.469666 
	C483.255219,216.249252 472.783905,213.682770 462.135040,212.880432 
z"/>
<path fill="#ECB463" opacity="1.000000" stroke="none" 
	d="
M460.728302,148.996719 
	C460.777588,150.073380 460.826843,151.150040 460.613953,152.778015 
	C460.479370,153.880325 460.606964,154.431320 460.734589,154.982300 
	C460.781860,171.358673 460.829132,187.735046 460.572662,204.839325 
	C460.148468,206.730621 460.028015,207.894012 459.907562,209.057419 
	C459.620331,208.478989 459.080719,207.899826 459.082367,207.322220 
	C459.138245,187.751846 459.245575,168.181610 459.718109,148.501785 
	C460.231079,148.669876 460.443573,148.871384 460.728302,148.996719 
z"/>
<path fill="#D19F56" opacity="1.000000" stroke="none" 
	d="
M502.943909,157.737350 
	C491.775269,145.045456 476.884125,145.346695 461.351257,146.668640 
	C461.669403,145.888245 462.371063,144.188660 463.090424,144.181122 
	C474.924652,144.057068 487.088989,142.713501 497.493225,150.180634 
	C499.834473,151.860977 501.177643,154.931992 502.943909,157.737350 
z"/>
<path fill="#D19F56" opacity="1.000000" stroke="none" 
	d="
M459.940308,209.331360 
	C460.028015,207.894012 460.148468,206.730621 460.495270,205.304535 
	C460.811951,206.746475 460.902283,208.451065 460.878418,210.570282 
	C460.500519,210.525040 460.236786,210.065170 459.940308,209.331360 
z"/>
<path fill="#D19F56" opacity="1.000000" stroke="none" 
	d="
M460.813843,148.733185 
	C460.443573,148.871384 460.231079,148.669876 459.994141,148.189575 
	C459.897491,147.986954 460.303497,147.942886 460.507568,147.945587 
	C460.774231,148.122055 460.836792,148.295853 460.813843,148.733185 
z"/>
<path fill="#F6AF45" opacity="1.000000" stroke="none" 
	d="
M321.462280,221.950684 
	C319.993011,220.930801 318.903168,219.947968 317.467194,218.919800 
	C313.415863,213.103165 309.689697,207.345215 306.010284,201.557541 
	C300.014648,192.126404 299.619293,182.000107 301.231964,171.186752 
	C302.544403,162.386475 307.055084,155.281357 310.981659,147.387451 
	C316.065582,143.144272 320.773468,138.711639 326.197479,135.481628 
	C336.893005,129.112411 348.391357,127.397606 360.826813,130.156174 
	C368.125031,131.775131 374.690918,134.058212 380.309723,139.030716 
	C381.186157,139.806366 382.799835,139.748978 384.437927,140.137909 
	C385.771545,141.860641 386.497864,143.737335 387.750366,145.146301 
	C392.868958,150.904251 396.363861,157.388092 398.966797,164.715088 
	C403.021240,176.127747 401.084534,186.989105 397.849457,197.953995 
	C397.038696,200.701874 395.915955,203.357712 394.888092,206.453339 
	C391.918762,209.998779 388.997955,213.146698 386.031006,216.639709 
	C381.879272,219.293381 377.716461,221.506592 373.679047,223.928848 
	C362.662567,230.538162 350.722595,231.346146 338.612732,228.748734 
	C333.452881,227.642029 328.715729,224.577011 323.771790,222.435806 
	C323.175568,222.177597 322.487305,222.131912 321.462280,221.950684 
M318.232910,183.054184 
	C318.449432,184.028091 318.678406,184.999435 318.880646,185.976303 
	C321.998779,201.039612 334.429535,211.543488 349.516968,211.859604 
	C365.486053,212.194199 378.721161,202.381302 382.422211,187.462708 
	C386.151306,172.431274 379.086700,156.924576 365.388336,150.073563 
	C342.583832,138.668243 317.648621,155.605209 318.232910,183.054184 
z"/>
<path fill="#F6AF45" opacity="1.000000" stroke="none" 
	d="
M173.143311,149.568954 
	C175.114685,147.369476 177.009232,145.528488 178.966080,143.358307 
	C180.267273,142.267838 181.570755,141.593842 182.735214,140.731979 
	C196.388519,130.626617 211.120148,125.930115 228.215454,130.438583 
	C238.357605,133.113312 246.246811,138.901489 253.450790,146.066711 
	C254.227280,146.839020 255.217209,147.396744 256.445740,148.134247 
	C259.068787,153.860733 261.638458,159.411392 263.576599,165.174438 
	C266.931091,175.149048 266.286621,184.985275 263.349487,195.202194 
	C260.011261,206.814453 252.869492,215.472137 243.419754,221.533081 
	C236.564804,225.929779 227.770401,227.302673 219.384735,229.721039 
	C218.518723,229.097000 218.108765,228.775787 217.698792,228.454575 
	C217.460236,228.975555 217.221680,229.496521 216.983124,230.017502 
	C213.967346,230.008957 210.951584,230.000412 207.441833,229.685989 
	C206.287735,229.264725 205.627625,229.149353 204.967514,229.033981 
	C199.229187,226.771271 192.958252,225.333389 187.877441,222.052460 
	C180.264771,217.136551 173.670639,210.778656 169.964401,202.077301 
	C169.393906,200.737885 168.416870,199.571640 167.334930,198.147491 
	C166.352783,193.934784 165.663574,189.899872 164.986420,185.005020 
	C164.993301,181.750015 164.988113,179.354980 164.982941,176.959930 
	C164.984741,175.910309 164.986557,174.860687 165.336655,173.353302 
	C165.779785,171.588669 165.874619,170.281799 165.969421,168.974945 
	C165.976135,168.542648 165.982849,168.110336 166.293488,167.312576 
	C166.719025,166.286102 166.840652,165.625092 166.962280,164.964081 
	C168.997009,159.951874 171.031738,154.939667 173.143311,149.568954 
M244.991943,165.578064 
	C244.446854,164.548843 243.952240,163.488983 243.349045,162.495026 
	C234.522491,147.951080 215.926849,142.397629 201.097076,149.862823 
	C185.713104,157.606979 178.601166,175.904312 184.945618,191.416626 
	C191.595200,207.674988 208.938339,215.759796 225.561996,210.350708 
	C243.909149,204.380783 252.122925,186.050110 244.991943,165.578064 
z"/>
<path fill="#F2B055" opacity="1.000000" stroke="none" 
	d="
M205.148788,229.272949 
	C205.627625,229.149353 206.287735,229.264725 206.990540,229.669983 
	C206.465515,229.810547 205.897781,229.661240 205.148788,229.272949 
z"/>
<path fill="#F2B055" opacity="1.000000" stroke="none" 
	d="
M217.321320,230.023224 
	C217.221680,229.496521 217.460236,228.975555 217.698792,228.454575 
	C218.108765,228.775787 218.518723,229.097000 218.970535,229.718933 
	C218.561432,230.022736 218.110474,230.025848 217.321320,230.023224 
z"/>
<path fill="#EFB255" opacity="1.000000" stroke="none" 
	d="
M165.702988,169.216705 
	C165.874619,170.281799 165.779785,171.588669 165.343872,172.959747 
	C165.147369,171.835480 165.291946,170.646988 165.702988,169.216705 
z"/>
<path fill="#EFB255" opacity="1.000000" stroke="none" 
	d="
M164.707077,177.237823 
	C164.988113,179.354980 164.993301,181.750015 164.987762,184.595093 
	C164.795120,182.535309 164.613174,180.025497 164.707077,177.237823 
z"/>
<path fill="#EFB255" opacity="1.000000" stroke="none" 
	d="
M166.723816,165.146790 
	C166.840652,165.625092 166.719025,166.286102 166.304474,166.988495 
	C166.169479,166.463104 166.327423,165.896301 166.723816,165.146790 
z"/>
<path fill="#F9F9F8" opacity="1.000000" stroke="none" 
	d="
M494.131592,202.246216 
	C485.442322,208.892609 475.696838,207.910416 465.620667,207.652359 
	C465.620667,188.836853 465.620667,170.147842 465.620667,151.452255 
	C483.143036,148.594788 494.986450,152.660583 501.685089,165.330811 
	C508.208649,177.669937 505.149048,192.595245 494.131592,202.246216 
z"/>
<path fill="#D19F56" opacity="1.000000" stroke="none" 
	d="
M460.847107,154.661972 
	C460.606964,154.431320 460.479370,153.880325 460.540253,153.176849 
	C460.805695,153.463440 460.882660,153.902542 460.847107,154.661972 
z"/>
<path fill="#261A13" opacity="1.000000" stroke="none" 
	d="
M318.183380,182.612427 
	C317.648621,155.605209 342.583832,138.668243 365.388336,150.073563 
	C379.086700,156.924576 386.151306,172.431274 382.422211,187.462708 
	C378.721161,202.381302 365.486053,212.194199 349.516968,211.859604 
	C334.429535,211.543488 321.998779,201.039612 318.880646,185.976303 
	C318.678406,184.999435 318.449432,184.028091 318.183380,182.612427 
M378.794098,180.371872 
	C378.763336,167.786774 373.072235,158.546204 361.640015,153.520248 
	C350.902130,148.799545 340.623810,150.639114 332.008514,158.626373 
	C323.134705,166.853302 320.547913,177.139252 324.303864,188.686768 
	C328.254425,200.832596 340.550568,208.488800 353.586761,207.280441 
	C367.065247,206.031097 376.781433,195.981598 378.794098,180.371872 
z"/>
<path fill="#271A13" opacity="1.000000" stroke="none" 
	d="
M245.153229,165.923523 
	C252.122925,186.050110 243.909149,204.380783 225.561996,210.350708 
	C208.938339,215.759796 191.595200,207.674988 184.945618,191.416626 
	C178.601166,175.904312 185.713104,157.606979 201.097076,149.862823 
	C215.926849,142.397629 234.522491,147.951080 243.349045,162.495026 
	C243.952240,163.488983 244.446854,164.548843 245.153229,165.923523 
M241.806274,170.136307 
	C235.701859,155.810410 222.224182,148.416550 208.700424,151.974411 
	C193.508347,155.971176 184.274948,171.390335 188.152618,186.287842 
	C192.064682,201.317368 207.350754,210.467712 222.072632,206.592590 
	C238.116989,202.369324 246.542099,187.318970 241.806274,170.136307 
z"/>
<path fill="#FAFAF9" opacity="1.000000" stroke="none" 
	d="
M378.789124,180.795288 
	C376.781433,195.981598 367.065247,206.031097 353.586761,207.280441 
	C340.550568,208.488800 328.254425,200.832596 324.303864,188.686768 
	C320.547913,177.139252 323.134705,166.853302 332.008514,158.626373 
	C340.623810,150.639114 350.902130,148.799545 361.640015,153.520248 
	C373.072235,158.546204 378.763336,167.786774 378.789124,180.795288 
z"/>
<path fill="#FAFAF9" opacity="1.000000" stroke="none" 
	d="
M241.925812,170.525146 
	C246.542099,187.318970 238.116989,202.369324 222.072632,206.592590 
	C207.350754,210.467712 192.064682,201.317368 188.152618,186.287842 
	C184.274948,171.390335 193.508347,155.971176 208.700424,151.974411 
	C222.224182,148.416550 235.701859,155.810410 241.925812,170.525146 
z"/>
</svg>